<?xml version="1.0" encoding="UTF-8"?>
<svg id="svg1" xmlns="http://www.w3.org/2000/svg" xmlns:svg="http://www.w3.org/2000/svg" xmlns:sodipodi="http://sodipodi.sourceforge.net/DTD/sodipodi-0.dtd" xmlns:inkscape="http://www.inkscape.org/namespaces/inkscape" version="1.1" viewBox="0 0 500 500">
  <!-- Generator: Adobe Illustrator 29.6.1, SVG Export Plug-In . SVG Version: 2.1.1 Build 9)  -->
  <sodipodi:namedview id="namedview1" bordercolor="#000000" borderopacity="0.25" inkscape:current-layer="layer1" inkscape:cx="491.00894" inkscape:cy="407.30574" inkscape:deskcolor="#d1d1d1" inkscape:document-units="mm" inkscape:pagecheckerboard="0" inkscape:pageopacity="0.0" inkscape:showpageshadow="2" inkscape:window-height="986" inkscape:window-maximized="1" inkscape:window-width="1920" inkscape:window-x="-11" inkscape:window-y="-11" inkscape:zoom="0.66903058" pagecolor="#ffffff"/>
  <g>
    <path d="M201.26,197.12c-.57.52-1.03,1.27-1.03,1.67,0,1.75,7.76,8.5,9.77,8.5.68,0,1.7-.51,2.28-1.15.88-.97.98-1.77.63-4.99-.4-3.69-.32-4.03,2.05-8.83,2.57-5.21,6.02-9.79,6.81-9.02.25.25.06.78-.42,1.18-.48.4-1.39,1.53-2.01,2.5-4.31,6.74-4.94,8.37-4.96,12.74-.01,4.12.73,5.51,2.75,5.12.58-.11,2.38-1.92,4-4.02,4.49-5.82,11.21-12.19,17.09-16.2,6.45-4.4,11.48-6.59,11.48-4.99,0,.32-.39.59-.87.59-1.45,0-6.96,2.74-9.38,4.66-1.26,1-2.48,1.81-2.72,1.81-.92,0-10.87,9.46-12.49,11.89-.94,1.4-3.01,3.93-4.61,5.62-2.76,2.92-3.67,4.87-2.29,4.87,1.22,0,7.12-3.08,9.76-5.1,1.47-1.12,3.33-2.29,4.14-2.6.81-.31,3.41-2.02,5.77-3.8,2.36-1.78,4.63-3.23,5.04-3.23s-.42.86-1.84,1.9-3.39,2.49-4.36,3.22c-.97.72-2.83,1.88-4.12,2.58s-2.89,1.75-3.53,2.34c-.65.59-2.75,2.02-4.68,3.17-1.92,1.16-3.12,2.11-2.65,2.11.69,0,.7.1.06.51-.59.37-.44.59.59.87,2.9.78,7.57.37,12.27-1.06,1.39-.42,1.41-.39.49.58-1.44,1.5-10.98,2.54-13.83,1.5-3.07-1.11-3.42-.22-1.47,3.81,2.18,4.52,2.69,6.15,1.9,6.15-.34,0-1.7-2.14-3.01-4.75s-2.69-4.65-3.05-4.53-1.04,1.27-1.49,2.54c-.94,2.62-2.49,13.83-2.5,18.04,0,1.52-.27,2.93-.59,3.13-.75.46-.78-6.35-.05-11.19,1.18-7.84,1.26-8.86.66-7.95-.47.7-.59.72-.6.07,0-.47-.5-.19-1.19.68-.65.82-1.18,1.75-1.18,2.07s-.4.9-.89,1.31c-1.07.89-5.43,7.41-7.68,11.48-.89,1.62-2.64,4.49-3.89,6.37-1.25,1.89-2.27,3.62-2.27,3.86s-.33.76-.73,1.16-1.82,2.76-3.16,5.24c-2.6,4.83-4.41,6.57-2.82,2.7.51-1.24,1.27-2.65,1.68-3.14.79-.93,4.5-6.93,7.65-12.37,1.56-2.7,6.65-10.54,11.05-17.04.56-.83,1.33-2.11,1.71-2.84.38-.73.91-1.33,1.18-1.33.75,0,.59-1.41-.28-2.6-.74-1.01-.93-.98-3.98.56-1.8.91-4.96,3.41-7.23,5.71-2.21,2.25-4.13,3.99-4.25,3.86-.13-.12.66-1.54,1.74-3.14,1.86-2.76,4.03-4.43,10.52-8.14,3.45-1.97,3.57-3.24.41-4.69-2.53-1.17-2.78-1.37-5.76-4.78-1.85-2.11-2.05-2.19-3.45-1.44-.82.44-1.7,1.33-1.95,1.99-.25.65-1.04,1.71-1.75,2.35-.71.64-1.98,2.63-2.82,4.42s-1.75,3.34-2.03,3.45c-1.07.43-2.98,5.34-4.04,10.4-1.53,7.33-4,14.76-6.07,18.26-2.23,3.78-3.92,10.14-3.89,14.68.03,4.77,1.8,9.91,3.62,10.46h0c.75.23,3.16.28,5.35.11,3.26-.25,4.77-.75,8.25-2.72,2.34-1.33,4.79-2.85,5.44-3.38.65-.53,1.9-1.33,2.79-1.77,1.56-.78,8.76-7.89,10.49-10.36.94-1.35,6.02-4.97,6.96-4.97.33,0,.81-.35,1.07-.78s.89-.93,1.41-1.12c.87-.32,9.37-11.69,9.37-12.54,0-.21,1.33-1.74,2.94-3.39,1.62-1.65,2.94-3.22,2.94-3.48s.28-.47.63-.47c1.08,0,6.99-5.43,10.25-9.42,4.11-5.03,6.65-9.44,7.42-12.84.34-1.52,1.42-5.02,2.39-7.77.97-2.75,2.25-7.79,2.84-11.19,1.39-8.03,1.14-8.54-4.56-9.12-2.86-.29-5.17-.14-7.83.49-2.07.5-5.14,1.07-6.81,1.28-2.13.26-3.44.8-4.38,1.81-.74.79-2.56,1.81-4.03,2.27-5.57,1.72-9.67,3.38-16.12,6.52-6.96,3.38-9.82,5.76-11.92,9.89-.63,1.23-1.61,2.67-2.17,3.18ZM223.92,181.22c3.84-.9,10.35-3.6,11.65-4.82,1.06-1.01,2.63-1.57,5.6-2.01,2.27-.33,5.58-.96,7.36-1.4,1.78-.44,3.9-.61,4.71-.38.81.23,2.31.44,3.32.47,1.02.03,1.97.39,2.12.79.48,1.32-1.73,12.65-3.56,18.25-.98,3-2.09,6.6-2.46,7.99-1.27,4.81-6.17,11.74-12.68,17.91-1.62,1.54-3.15,2.8-3.41,2.81-.64.01-8.07,7.72-8.07,8.38,0,.72-7.81,11.66-8.33,11.66-.72,0-9.93,6.53-9.93,7.05,0,.9-8.08,9.16-9.8,10.02-.93.47-2.22,1.28-2.87,1.81-2.38,1.95-9.86,5.86-11.2,5.86h0c-.76,0-2,.22-2.75.49-.75.27-2.3.26-3.44-.03-1.8-.45-2.22-.91-3.09-3.37-1.99-5.6-.71-14.83,2.9-20.95,2.07-3.51,4.54-10.94,6.06-18.26,1.07-5.11,2.45-8.73,3.61-9.45.31-.19,1.35-1.98,2.31-3.99.97-2,2.83-4.83,4.15-6.29l2.4-2.65,2.47,2.7c1.36,1.48,3.46,3.29,4.68,4.03,1.22.73,2.06,1.58,1.87,1.88-.19.3-1.58,1.2-3.1,2-4.75,2.5-7.38,4.66-9.67,7.93-2.47,3.53-2.61,4.03-1.31,4.53.6.23,2.22-1.03,4.86-3.77,3.9-4.05,9.73-7.77,10.43-6.64.19.31-.39,1.7-1.28,3.09-.9,1.39-1.9,2.95-2.23,3.46-.33.52-2.65,4.03-5.15,7.81s-5,7.73-5.54,8.78c-1,1.93-3.45,5.86-7.14,11.46-2.33,3.53-2.88,6.94-1.12,6.94.75,0,1.89-1.51,3.75-5.01,1.47-2.75,3.04-5.42,3.48-5.94.45-.51.81-1.09.81-1.28s1.02-1.9,2.27-3.78c1.25-1.89,3-4.75,3.89-6.37,2.25-4.07,6.61-10.59,7.68-11.48.49-.41.89-1.09.89-1.51s.22-.91.49-1.08c.27-.17.14,2-.28,4.82-1.13,7.51-1.05,13.6.17,14.07,1.45.56,2.54-1.39,2.52-4.48-.03-3.8,1.56-15.31,2.4-17.43l.7-1.77,2.31,4.56c2.3,4.55,3.28,5.33,4.63,3.71.56-.68.38-1.61-.92-4.56-.89-2.04-1.91-4.09-2.26-4.56-.52-.7-.42-.75.55-.29,1.7.8,11.78.47,13.64-.45,1.96-.96,3.04-2.59,2.25-3.36-.37-.36-1.75-.25-3.81.29-1.78.47-4.68.78-6.43.69l-3.2-.16,3.41-2.36c1.88-1.3,4.68-3.15,6.22-4.12,3.85-2.42,5.87-3.82,7.91-5.48.95-.77,2.37-1.65,3.14-1.94,1.51-.57,1.52-1.56.03-2.5-.71-.45-1.91.16-5.19,2.61-2.35,1.75-5.27,3.72-6.49,4.37-1.22.65-3.65,2.15-5.4,3.33-2.89,1.95-7.55,4.27-7.55,3.77,0-.11,1.22-1.49,2.71-3.06,1.49-1.57,3.54-4.09,4.56-5.6,1.77-2.61,10.61-11.1,11.56-11.1.25,0,1.47-.82,2.73-1.81,2.37-1.88,7.92-4.66,9.31-4.66.44,0,1.13-.41,1.55-.91.62-.75.59-1.08-.19-1.86-.87-.87-1.18-.86-3.78.12-3.94,1.48-13.29,7.95-17.76,12.28-2.06,1.99-5.31,5.68-7.24,8.19-2.26,2.94-3.91,4.56-4.66,4.56-1.03,0-1.15-.42-1.14-3.98.02-4.87,1.24-7.74,5.77-13.55,1.29-1.65,1.83-2.88,1.6-3.61-.26-.82,0-1.19.99-1.42ZM214.66,185.55c3.24-1.64,5.46-2.65,4.94-2.24-1.32,1.03-4.78,6.56-6.6,10.55-1.33,2.92-1.48,3.85-1.18,7.45.31,3.74.23,4.17-.87,4.76-1.03.55-1.65.32-3.98-1.46-3.12-2.38-5.52-4.93-5.55-5.89-.01-.35.46-1.08,1.05-1.61.59-.53,1.64-2.11,2.34-3.5,1.76-3.53,3.11-4.63,9.84-8.04Z"/>
    <path d="M243.05,256.74c.81.03,1.07-1.32,1.96-10.22.65-6.55,1.15-9.42,2.35-13.6.37-1.3.9-3.81,1.17-5.59,1.08-7.17,1.74-10.96,2.11-12.22.77-2.64-1.15-1.27-7.27,5.15-3.39,3.56-6.47,6.48-6.83,6.48s-1.41.93-2.31,2.07l-1.65,2.07.99,5.37c.83,4.5.88,6.28.35,11.01-.35,3.1-.58,5.7-.52,5.77.07.07,2.11.93,4.54,1.91h0c2.43.98,4.74,1.8,5.13,1.82ZM235.27,252.17l.07-2.85c.04-1.57.13-4.58.21-6.68.08-2.11-.19-5.44-.6-7.4-.71-3.42-.68-3.66.64-5.45.76-1.03,1.7-1.87,2.09-1.87s2.87-2.28,5.51-5.08c2.64-2.79,4.94-4.93,5.12-4.76.47.47-.92,9.01-2.18,13.37-.61,2.11-1.37,5.95-1.69,8.54s-.89,7.03-1.25,9.86h0c-.37,2.83-.84,5.13-1.05,5.1-.21-.03-1.84-.67-3.62-1.42l-3.24-1.37Z"/>
    <path d="M225.85,246.16c.4,4.5.44,4.6,2.27,5.19,3.39,1.09,3.92.92,3.92-1.29,0-1.11-.27-2.1-.6-2.21-.33-.11-1.24-2.05-2.03-4.32-2.4-6.89-4.28-5.5-3.56,2.64ZM229.86,248.56c.55.64,1,1.29,1,1.45,0,.33-.98.28-2.5-.12-.75-.2-1.03-.87-1.03-2.51,0-1.23-.13-3.13-.29-4.23-.21-1.43.01-1.11.77,1.12.58,1.71,1.5,3.64,2.05,4.28Z"/>
    <path d="M390.87,67.92h0c.68,2.18,1.12,2.78,1.86,2.54,3.92-1.27,10-2.73,11.38-2.73.91,0,1.66-.3,1.66-.66,0-.49.21-.48.8,0,.55.46,2.09.53,4.85.22l4.05-.45.37-2.26c.44-2.7-.33-11.99-1.29-15.71-1.52-5.87-6.96-14.52-10.52-16.74-1.19-.75-6.39-6.2-6.65-6.99-.45-1.34-2.01.16-2.73,2.61-.41,1.41-1.55,4-2.52,5.74-3.84,6.9-4.89,13.05-3.71,21.93.95,7.18,1.2,8.48,2.46,12.48ZM400.95,65.09c-.39.39-1.52-3.21-2.21-7.04-.75-4.21-.83-13.29-.11-13.29.28,0,.65,3.64.81,8.1.17,4.45.63,8.97,1.03,10.04h0c.4,1.07.61,2.06.48,2.19ZM405.59,65.96c-.18,0-.51-1.26-.71-2.8-.21-1.54-.5-3.33-.65-3.98-.22-.96-.17-1.01.31-.26.32.5.76,2.29.99,3.98h0c.22,1.68.26,3.06.07,3.06ZM393.3,34.65c.96-1.73,2.06-4.16,2.45-5.39l.71-2.24,2.76,2.87c1.52,1.58,3.15,3.12,3.63,3.42,2,1.25,6.36,6.87,8.04,10.35,2.64,5.49,3.37,8.91,3.4,15.81l.03,6.18-3.13.31c-1.84.18-3.32.06-3.61-.29-.27-.33-.67-2.07-.89-3.85-.49-3.91-2.02-7.27-3.42-7.54-1.19-.23-1.37,1.75-.49,5.19.89,3.48,1.27,7.07.75,7.07-1.15,0-2.64-7.65-2.99-15.31l-.36-7.95h-1.47c-1.45,0-1.47.07-1.66,5.59-.2,5.95.66,13.01,1.97,16.13l.79,1.9-3.53.95-3.53.95-.59-1.55c-1.19-3.12-2.36-9.97-2.69-15.72-.38-6.65.62-11.06,3.84-16.88Z"/>
    <path d="M192.05,201.41c1.01,0,9.71-9.19,10.5-11.08.69-1.65.63-2.17-.54-4.65-.72-1.53-1.67-3.06-2.1-3.39-.44-.33-1.16-1.32-1.6-2.19-.92-1.81-4.92-6.37-5.58-6.37-.24,0-.46,5.02-.49,11.15-.03,8.05-.25,11.4-.79,12.05-.46.56-.59,1.57-.35,2.69h0c.22.99.64,1.79.95,1.79ZM192.86,197.99c.18-.47.5-5.33.7-10.8l.38-9.95,1.38,1.3c.76.71,1.38,1.6,1.38,1.97s.79,1.56,1.75,2.63c2.6,2.92,3.32,5.55,2.06,7.55-1.23,1.94-8.11,8.51-7.64,7.3Z"/>
    <path d="M146.29,173.09c-4.27-.87-5.31-.57-5.8,1.65-.3,1.35-1.04,1.97-3.88,3.23-2.46,1.09-3.82,2.11-4.55,3.41-.57,1.02-1.63,2.57-2.36,3.44s-1.46,1.98-1.62,2.48c-.36,1.11-3.32,2.92-4.8,2.93-.6,0-2.94.93-5.21,2.06s-4.45,2.05-4.86,2.05c-.4,0-.74.24-.74.53s-1.19,1.79-2.65,3.33-2.65,3.29-2.65,3.89h0c0,1.5,1.06,1.34,3.92-.6,2.79-1.89,12.25-3.76,18.26-3.6,1.89.05,5.91-.11,8.94-.34,3.71-.29,6.8-.18,9.49.32,2.2.41,4.92.58,6.04.37l2.05-.38.37-7.37c.36-7.12.32-7.49-1.19-10.8-1.87-4.1-3.87-5.61-8.78-6.6ZM155.02,190.32c-.33,7.26-.39,7.32-5.96,6.28-2.11-.39-7.37-.47-14.5-.2h0c-6.15.23-13.76.87-16.9,1.43l-5.71,1.01.98-1.66c.54-.91,1.25-1.66,1.59-1.66.34,0,2.46-.92,4.73-2.05,2.27-1.13,4.61-2.06,5.21-2.06,1.48-.01,4.44-1.83,4.8-2.93.16-.5.89-1.61,1.62-2.48s1.79-2.41,2.36-3.44c.72-1.3,2.09-2.33,4.55-3.41,2.87-1.27,3.58-1.87,3.89-3.26.37-1.69.42-1.71,3.61-1.38,4.35.45,6.68,2.15,8.53,6.24,1.38,3.05,1.47,3.78,1.2,9.58Z"/>
    <path d="M230.27,241.52h0c0,.61.41,1.11.9,1.11.75,0,.84-.54.52-3.09-.44-3.48-.92-4.29-2.26-3.78-1.21.46-1.24,3.84-.04,4.3.49.19.88.84.88,1.45Z"/>
    <path d="M391.78,118.16c-4.56-1.28-7.8-.97-7.8.77,0,.56.18,1.19.39,1.41h0c.49.49,5.32.5,7.12.02,1.57-.42,1.76-1.78.29-2.2ZM388.4,119.55c-.81,0-1.47-.23-1.47-.51s.66-.38,1.47-.23c.81.15,1.47.38,1.47.51s-.66.23-1.47.23Z"/>
    <path d="M493.23,70.87c6.86-.44,6.77-.39,6.77-3.65,0-3.52-.5-4-7.39-7.21-8.1-3.77-16.83-5.84-24.41-5.81-6.69.03-14.84,1.35-17.3,2.8l-2.14,1.26-.03-4.84c-.05-8.96-.96-16.43-2.55-20.96-2.17-6.17-5.35-11.66-8.82-15.24-2.59-2.67-3.31-3.09-5.25-3.09h-2.25l.15,6.04c.17,6.99.31,6.63-6.34,16.07-1.65,2.34-3.61,5.77-4.37,7.64l-1.38,3.4-.68-2.29c-1.95-6.53-4.32-10.2-11.17-17.27-4.57-4.72-7.17-7.91-7.98-9.8-1.24-2.88-3.11-4.97-4.47-4.97s-2.01,2.16-1.93,6.04c.06,2.75-.25,4.38-1.17,6.21-.69,1.36-1.8,3.57-2.48,4.91-1.97,3.89-2.85,7.49-3.26,13.27l-.39,5.4-2.67-3.63c-3.53-4.8-11.96-13.1-16.06-15.82-3.67-2.44-7.96-3.75-10.31-3.16-1.51.38-1.55.5-1.23,3.62.23,2.2.71,3.55,1.51,4.24,2.05,1.75,2.47,4.9,1.43,10.62-1,5.5-1.34,16.23-.62,19.46l.44,1.98-2.23-2.01c-2.67-2.41-11.27-7.68-14.55-8.92-1.3-.49-3.95-1.32-5.89-1.85-1.94-.53-4.33-1.2-5.3-1.49s-4.55-1.05-7.96-1.7c-6.04-1.15-11.41-1.09-13.41.15-.81.5-.51,6.42.34,6.71,5.44,1.81,10.08,8.88,11.37,17.33.28,1.84,1.3,5.62,2.26,8.39l1.75,5.04h-1.99c-1.09,0-3.83.39-6.09.86-5.57,1.17-12.56.15-19.86-2.91-2.9-1.22-6.06-2.24-7.04-2.29l-1.77-.08.16,4.71c.09,2.59.58,6.17,1.08,7.95.91,3.21,4.13,9.54,5.05,9.91.26.11.48.6.48,1.1s1.2,2.59,2.66,4.64l2.66,3.73-1.63,1c-.9.55-2.16,1.36-2.81,1.81s-2.64,1.79-4.42,3c-6.87,4.66-10.03,7.41-13.02,11.35-1.71,2.25-3.29,4.09-3.51,4.09s-1.55,1.52-2.95,3.39c-1.4,1.86-2.89,3.74-3.31,4.16-.42.43-.76,1.01-.76,1.28s-.35.86-.77,1.28c-.42.43-1.42,1.97-2.21,3.43s-1.57,2.78-1.74,2.94c-1.19,1.17-3.76,5.12-5.26,8.09-1.7,3.35-1.93,3.56-4.3,3.87-1.38.18-4.03.61-5.89.96s-4.86.89-6.67,1.2c-2.21.38-3.91,1.12-5.19,2.24-1.93,1.69-2.83,2.11-8.61,3.96-3.58,1.15-12.75,5.39-14.13,6.54-1.85,1.53-2.37,1.1-4.29-3.59-1.81-4.41-5.52-10.05-9.32-14.13-.9-.97-2.03-2.69-2.51-3.83-2.18-5.19-13.56-18.26-17.12-19.66-.34-.13-.06-.66.62-1.17,1.89-1.4,4.18-6.73,4.59-10.68.2-1.94.09-5.72-.25-8.39-.7-5.54.22-10.64,2.26-12.54.63-.59,1.47-2.43,1.88-4.1.54-2.24,1.46-3.82,3.56-6.08,4.72-5.07,7.51-9.22,8.14-12.1,1.77-8.12,1.24-18.35-1.39-26.66-1.11-3.53-1.48-5.97-1.48-9.88,0-6.1-.35-6.6-4.89-6.97-3.76-.3-8.28,1.27-13.18,4.6-1.88,1.28-3.74,2.33-4.13,2.33-.89,0-2.74,2.43-6.9,9.07-3.02,4.82-3.29,5.52-3.29,8.69s-.22,3.68-1.73,5.26c-1.56,1.63-1.77,2.33-2.15,7.17-.4,5.14-.51,5.46-2.64,7.76-3.15,3.4-5.86,4.13-9.68,2.6-4.4-1.77-4.7-1.97-4.91-3.41-.11-.73.39-2.68,1.1-4.34,1.08-2.51,1.24-3.68.94-6.89-.31-3.36-.21-4,.78-4.84,2.13-1.83,2.64-5.14,1.91-12.4-.96-9.52-2.02-12.34-6.29-16.73-1.95-2-4.67-4.97-6.06-6.6-2.54-2.99-4.74-4.26-10.75-6.24-1.77-.58-4.83-1.94-6.79-3.01-5.09-2.78-11.76-4.07-16.46-3.18-4.37.82-7.97,2.74-8.87,4.72-2.71,5.91-2.79,6-6.36,7.32-4.92,1.81-5.66,2.95-5.66,8.66,0,2.75.35,5.51.86,6.72.79,1.89.76,2.21-.37,4.14-1,1.7-1.16,2.66-.86,5.22.26,2.18.1,3.78-.51,5.24-1.59,3.82-.46,9.28,2.99,14.36.78,1.15,1.7,3.12,2.04,4.38.63,2.32,1.91,4.47,5.1,8.54.98,1.25,2.09,2.87,2.48,3.61l.71,1.35-2.24-.97c-6.05-2.63-9.53-3.13-12.97-1.89-1.51.55-2.24.55-3.08.03-.6-.38-2.7-1.1-4.66-1.61-3.67-.95-7.7-.59-9.11.81-1.22,1.22-1.53,1.05-7.47-4.2-1.13-1-3.52-2.46-5.3-3.24-2.98-1.31-9.06-4.31-13.71-6.76-1.38-.73-3.4-1.01-7.36-1.03-4.82-.02-5.91.17-9.29,1.71-5.7,2.58-6.82,3.61-9.4,8.59-1.3,2.5-3.15,5.21-4.12,6.02C.75,94.3,0,95.94,0,100.15c0,3.22.27,4.3,1.65,6.48.91,1.44,2.26,3.88,3,5.42,1.25,2.6,3.07,4.64,7.37,8.23,1.27,1.06,1.83,2.19,2.17,4.33.97,6.14,5.65,16.67,8.3,18.63.99.74,2.89,2.47,4.23,3.86,6.94,7.17,8.26,8.41,9.84,9.24.95.5,2.57,1.35,3.6,1.89,1.03.54,4.47,1.24,7.65,1.55,4.87.48,6.33.41,9.36-.44,1.98-.56,3.72-.88,3.87-.73.39.39-1.43,4.58-2.5,5.77-.49.55-1.06,2.52-1.25,4.39-.39,3.76-1.34,4.95-9.79,12.26-2.2,1.9-4.26,4.12-4.57,4.93-.31.81-.71,3.49-.89,5.96-.18,2.47-.54,5.02-.79,5.67-.61,1.54-1.71,5.73-2.48,9.42-.34,1.62-.5,5.3-.37,8.18.22,4.79.38,5.35,1.81,6.58,1.76,1.51,6.94,2.42,10.01,1.75,1.04-.23,5.21-.64,9.26-.93,13.71-.96,15.26-1.3,21.46-4.64,3.1-1.67,5.64-2.93,5.64-2.8s-.79,1.13-1.75,2.23-2.08,2.79-2.49,3.76c-.41.97-1.06,2.16-1.45,2.65-.39.49-1.41,1.74-2.26,2.78-1.94,2.38-4.42,6.99-4.42,8.23,0,1.05-3.73,5.89-5.58,7.23-5.79,4.21-7.77,10.01-6.21,18.2.5,2.62.41,3.35-.63,5.34-1.15,2.21-1.18,2.76-.61,12.8.63,11.19,1.42,14.68,3.89,17.26.78.81,1.76,2.79,2.19,4.39.47,1.77,1.56,3.73,2.78,5.01,1.1,1.15,2.36,2.76,2.79,3.57.67,1.26,4.68,3.86,10.22,6.63,2.03,1.02,4.86,3.85,6.4,6.42,1.3,2.18,3.65,3.44,6.38,3.44.78,0,2.13.36,3,.81,2.83,1.44,18.21,3.17,19.95,2.24.78-.42,1.52-.35,2.56.22,2.14,1.18,4.57,1.03,9.17-.57,2.24-.78,5.14-1.59,6.43-1.81,2.95-.49,8.35-3.07,9.31-4.45.43-.62,1.91-1.22,3.64-1.48,2.33-.35,3.26-.85,4.7-2.55,3.04-3.59,8.55-8.79,10.63-10.01,1.97-1.16,7.86-2.96,11.19-3.41.97-.13,3.64-1.21,5.94-2.39l4.17-2.15,2.31,2.52c1.27,1.39,4.35,5.61,6.85,9.39,2.5,3.78,4.75,7.13,5.01,7.46,2.46,3.15,6.67,9.86,9.02,14.38,1.01,1.93,2.01,3.6,2.23,3.7.22.1,1.18,1.73,2.13,3.63.95,1.9,2.01,3.76,2.36,4.14.35.38,1.41,2.23,2.35,4.12.95,1.88,2.07,3.56,2.5,3.73.43.16.78.88.78,1.6s.53,2.39,1.17,3.73c1.21,2.5,1.34,6.83,1.02,33.13-.04,3.4-.03,10.95.02,16.78.18,19.85.05,48.86-.26,56.24-.5,11.89-.41,14.29.61,16.62.53,1.2.96,3.13.96,4.27,0,1.92.14,2.08,1.77,2.08,1.18,0,1.77-.29,1.77-.88,0-.49.38-.88.84-.88s1.01-.53,1.22-1.18c.3-.94.89-1.18,2.98-1.18,1.93,0,2.61-.23,2.61-.88s.68-.88,2.58-.88h2.58l.67-6.04c.37-3.32.96-7.51,1.3-9.31.42-2.18.45-5.03.09-8.54-.3-2.9-.44-6.85-.32-8.8.12-1.94.36-20.09.53-40.32.27-31.59.18-37.54-.6-42.11-1.44-8.38-2.17-19.62-1.47-22.69.33-1.46.52-3.98.42-5.59-.32-5.12.74-23.96,1.62-28.78.47-2.55.85-4.79.85-5s1.19.88,2.65,2.4c1.46,1.52,2.65,3.17,2.65,3.67s.28.9.63.9c.69,0,2.31,1.45,2.31,2.06,0,.51,1.58,2.06,2.09,2.06.34,0,6.75,5.42,9.59,8.1.43.4,1.16.74,1.62.74s.84.26.84.58.73.76,1.62.98c2.99.75,6.9,3.28,9.74,6.32,2.63,2.81,10.43,13.91,10.43,14.83,0,.23,1.83,2.96,4.06,6.08,4.38,6.11,13.6,15.35,19.26,19.31,4.09,2.86,16.09,8.71,19.08,9.3,2.55.51,4.38,1.06,10.01,3.03,2.43.85,5.29,1.68,6.35,1.84l1.94.29-.33-3.35c-.18-1.84-.88-4.99-1.55-6.99-1.08-3.18-1.19-4.62-.95-11.58.23-6.53.71-9.87,2.71-18.65,2.92-12.85,3.21-19.52,1.21-28.17-2.5-10.83-2.89-13.08-3.24-18.55-.49-7.66-2.43-19.26-3.58-21.46-.52-.99-1.43-2.73-2.01-3.87-1.17-2.26-8.53-9.66-13.29-13.36-1.66-1.29-4.58-2.94-6.48-3.66-1.9-.72-4.79-1.83-6.41-2.45-1.63-.63-4.13-1.14-5.56-1.14s-4.09-.31-5.92-.68c-3.05-.63-3.93-.53-11.04,1.24-5.71,1.42-9.16,2.68-13.21,4.83-9.66,5.11-10.56,5.46-14.03,5.41-1.91-.03-4.4-.56-6.06-1.28l-2.82-1.24,1.28-2.52c2.68-5.29,6.25-9.85,14.76-18.91,7.3-7.77,8.43-8.89,10.96-10.89l2.4-1.9,2.03,1.78c1.12.98,2.19,1.78,2.38,1.78s.95.55,1.69,1.22c2.15,1.94,6.64,5.07,9.4,6.55,1.4.75,3.79,2.23,5.31,3.28,3.13,2.17,11.95,6.64,15.49,7.85,1.78.61,6.09.79,17.67.74,13.77-.06,15.82-.2,20.32-1.37,8.11-2.11,17.23-5.37,19.25-6.87,1.03-.77,2.29-1.4,2.79-1.4,1.21,0,5.55,1.02,10.62,2.5,3.36.98,5.11,1.13,9.72.85,3.09-.19,7.21-.81,9.16-1.39,1.94-.58,5.12-1.02,7.07-.98,1.94.04,10.42.16,18.85.28l15.31.2,5.01-1.71c2.75-.94,5.2-2,5.44-2.36.71-1.07.51-5.47-.29-6.08-.4-.31-2.06-.92-3.68-1.35-1.62-.43-6-2.26-9.74-4.07-10.22-4.94-11.43-5.36-19.73-6.87-12.35-2.24-18.1-4.74-24.49-10.61-2.96-2.72-7.81-5.53-9.54-5.53-.69,0-4.74-2.64-6.55-4.27-.63-.57-1.37-1.03-1.64-1.03s-2.27-1.19-4.45-2.65c-2.17-1.46-4.25-2.65-4.61-2.65s-1.91-.67-3.45-1.49-5.27-2.17-8.31-3.02l-5.51-1.53,1.72-2.14c5.64-7,7.88-10.01,8.7-11.71.51-1.05,1.1-1.91,1.31-1.91s.74,1.13,1.18,2.5c1.01,3.17,3.84,9.18,4.91,10.4.45.51,1.96,3.14,3.35,5.83,3.83,7.39,5.29,7.74,8.43,2.03,1.96-3.56,4.85-7.24,11.49-14.59,2.69-2.98,3.71-4.86,5.36-9.89.72-2.21,1.38-3.93,1.46-3.83.08.1,1.04,1.91,2.12,4.01,2.2,4.25,6.33,10.04,8.92,12.5,2.7,2.56,6.72,4.68,8.5,4.47,1.46-.17,1.68-.54,2.44-3.95.8-3.62,1.41-4.96,7.32-15.97,2.91-5.42,4.27-9.26,4.88-13.79l.39-2.9,2.75,2.96c3.08,3.32,6.69,5.9,11.85,8.46,5,2.48,6.44,2.33,8.73-.92,3.48-4.94,4.53-10.96,3.6-20.62-.28-2.91-1.01-6.9-1.62-8.88l-1.11-3.59,9.67-.69c9.4-.67,9.78-.65,13.5.62,3.3,1.13,3.91,1.19,4.41.45.79-1.18.31-6.16-.71-7.22-3.41-3.57-5.45-7.84-7.27-15.21-2.13-8.62-5.73-13.75-11.82-16.83-1.62-.82-3.03-1.57-3.13-1.66-.31-.28,2.29-5.08,3.33-6.17,4.44-4.61,10.68-7.69,16.29-8.05ZM231.95,481.75c-.87,0-1.72.33-1.88.74-.16.4-.32.14-.34-.59-.03-.76.3-1.33.77-1.33s.98-.88,1.21-2.08c.49-2.63,1.32-2.17,1.61.9.21,2.23.13,2.36-1.36,2.36ZM234.77,479.98c-.49,0-.72-8.38-.37-13.55.34-5.1.38-4.75.48,3.98.06,5.26,0,9.57-.11,9.57ZM238.76,477.09h0c.37,2.8.34,2.89-1.11,2.89h-1.49l-.12-10.16c-.14-11.74-.14-11.63.35-20.17.21-3.56.63-6.57.95-6.67.32-.11.6-1.7.62-3.53.06-4.86,1.03-6.68,1.14-2.16.49,19.11.69,22.97,1.21,23.29.38.23.4.88.06,1.79-1,2.65-2.01,11.82-1.62,14.73ZM236.39,364.55c-.83,0-.92-.99-.77-8.1.25-11.74-.61-46.51-1.24-49.62-.29-1.46-.69-4.64-.88-7.07-.19-2.43-.5-5.46-.69-6.74-.29-1.99-.23-2.2.47-1.43.44.49,2.47,2.61,4.49,4.7l3.69,3.81-.69,3.51c-.38,1.93-.87,3.64-1.1,3.81-.22.16-.54.96-.71,1.77-.17.81-.74,3.04-1.26,4.96-.72,2.64-.88,5.15-.66,10.31.16,3.75.42,12.65.59,19.77s.43,14.15.58,15.61c.15,1.46.56,5.27.91,8.48.35,3.21.63,9.96.62,15.02,0,5.05,0,10.91,0,13.02,0,2.11-.17,5.89-.41,8.41h0c-.23,2.52-.67,4.73-.96,4.92-.32.2-.41-4.92-.21-12.71.18-7.31.08-14.13-.23-15.52-.3-1.36-.63-5.12-.73-8.36-.1-3.24-.45-6.08-.77-6.32-.36-.27-.31-.43.15-.44.4,0,.74-.41.74-.89s-.42-.88-.94-.88ZM238.89,424.44c-.21.21-.38-2.23-.38-5.41,0-7.12.46-7.21.63-.12h0c.07,2.84-.05,5.33-.25,5.54ZM473.03,82.11c-2.14,3.96-2.25,4.46-.98,4.46,1.5,0,6.34,2.72,8.33,4.69,3.45,3.4,5.48,7.32,7,13.49,1.8,7.3,3.85,11.62,7.18,15.12.4.43.74,1.74.74,2.92,0,2.34.12,2.32-4.47.75-1.28-.44-4.4-.43-10.6.04-4.83.36-9.78.5-10.99.3-1.21-.2-2.2-.13-2.2.16,0,.29.68,2.64,1.5,5.23,2.03,6.44,2.67,18.18,1.22,22.62-1,3.05-4.3,8.3-5.23,8.3-.86,0-7.34-3.36-10.3-5.35-3.11-2.09-7.81-6.88-7.81-7.96,0-.65-1.26-1.41-2.34-1.41-.26,0-.66,1.75-.89,3.89-.53,4.93-2.02,9.25-5.13,14.91-5.17,9.37-6.27,11.77-6.99,15.13-.41,1.91-.95,3.7-1.2,3.99-.54.62-5.08-1.94-7.48-4.21-2.82-2.68-6.84-8.41-9.29-13.25-1.44-2.83-2.63-4.51-3.15-4.42-.46.09-1.54,2.27-2.42,4.89-1.7,5.06-2.58,6.86-4.31,8.78-6.42,7.14-10.46,12.17-12.19,15.21-1.15,2.01-2.46,3.66-2.9,3.66s-2.02-2.27-3.5-5.04c-1.48-2.77-3.23-5.82-3.9-6.77-1.34-1.92-3.14-5.95-4.88-10.86-1.09-3.09-3.05-4.8-3.05-2.67s-3.31,7.06-10.37,15.5c-1.16,1.39-1.98,2.87-1.81,3.29.16.43,2.81,1.47,5.89,2.32s6.85,2.22,8.39,3.04c1.54.82,3.09,1.49,3.45,1.49s2.43,1.19,4.61,2.65c2.17,1.46,4.17,2.65,4.45,2.65s1.01.46,1.64,1.03c1.8,1.63,5.85,4.27,6.55,4.27,1.74,0,6.58,2.81,9.54,5.53,6.39,5.88,12.14,8.37,24.49,10.61,8.31,1.51,9.51,1.93,19.73,6.87,3.73,1.81,8.12,3.64,9.74,4.07,1.62.43,3.23,1,3.57,1.26.55.42.69,3.87.17,4.31-.11.09-2.46.94-5.21,1.87l-5.01,1.7-14.13-.26c-22.51-.41-23.3-.39-27.09.73-5.93,1.74-11.78,1.94-16.52.55-2.25-.66-6.03-1.66-8.39-2.22l-4.3-1.02-2.47,1.76c-2.59,1.85-11.34,5.04-19.85,7.25-4.47,1.16-6.53,1.3-19.14,1.33-10.16.02-14.8-.19-16.49-.74-3.42-1.12-12.29-5.6-15.49-7.82-1.52-1.05-3.91-2.53-5.31-3.28-2.76-1.48-7.25-4.61-9.4-6.55-.74-.67-1.5-1.22-1.69-1.22s-1.25-.8-2.36-1.77-2.56-1.77-3.23-1.77c-1.32,0-4.79,2.54-8,5.86-8.83,9.15-15.35,16.45-17.72,19.85-2.09,3-5.41,9.09-5.41,9.91,0,1.45,6.45,3.55,10.9,3.55s3.7.26,15.31-5.74c6.95-3.59,18.7-6.67,21.97-5.77,1.19.33,3.49.6,5.11.61,1.61,0,4.26.52,5.89,1.14,1.63.63,4.51,1.73,6.41,2.45s4.82,2.37,6.48,3.66c4.78,3.71,12.12,11.1,13.28,13.36.58,1.13,1.48,2.83,1.99,3.77s1.23,3.59,1.59,5.89c.36,2.3.9,5.64,1.19,7.42.29,1.78.68,5.62.86,8.54.36,5.83.65,7.54,2.9,17.08,2.22,9.45,2.07,13.88-.91,26.99-2.14,9.39-2.47,11.82-2.71,19.83-.24,8.15-.13,9.52.97,12.79.68,2.01,1.24,4.61,1.24,5.76,0,1.83-.14,2.03-1.04,1.54-.92-.49-4.87-1.84-10.44-3.55-.97-.3-2.69-.73-3.83-.95-3-.59-14.99-6.44-19.08-9.3-5.66-3.96-14.88-13.2-19.26-19.31-2.23-3.12-4.06-5.85-4.06-6.08,0-.92-7.8-12.02-10.43-14.83-2.84-3.04-6.74-5.57-9.74-6.32-.89-.22-1.62-.66-1.62-.98s-.38-.58-.84-.58-1.19-.33-1.62-.74c-2.83-2.67-9.25-8.1-9.59-8.1-.5,0-2.09-1.55-2.09-2.04,0-.91-8.89-10.32-9.75-10.32-1.47,0-2.78,12.74-3.53,34.33-.11,3.17-.38,6.93-.59,8.34-.45,3,.55,15.35,1.87,23.08.8,4.66.87,10.15.55,40.64-.21,19.39-.5,37.49-.65,40.23-.15,2.74-.01,7.08.31,9.64.36,2.88.38,5.57.04,7.08-.3,1.34-.88,5.22-1.31,8.62-.71,5.74-.79,5.98-1.11,3.33-.37-3.12.3-10.28,1.21-12.98.72-2.11.75-4.48.07-4.48-.82,0-1.28-51.12-.52-58.6.41-4.01-.42-31.3-1.26-41.52-.54-6.57-1.36-31.65-1.3-39.53.02-2.56.52-5.29,1.47-7.95,1.52-4.29,2.72-9.44,2.71-11.59,0-.81-1.54-2.85-4.08-5.42-2.24-2.27-4.5-4.85-5.03-5.74-1.46-2.46-2.75-2.14-2.35.59,1.01,6.88,2.25,20.15,2.4,25.77.42,15.4.78,34.71.77,41.55,0,4.06.26,9.11.6,11.21,1.46,9.13,1.9,16.94,2.2,38.82.18,12.79.3,23.93.28,24.74-.1,4.11-.9,9.76-1.41,10.09-.56.36-.99,5.15-1.02,11.36,0,1.59-.15,2.76-.31,2.6-.16-.16-.31-3.52-.33-7.46-.02-3.94-.26-7.16-.54-7.16-1.85,0-2.37.85-2.45,4.04l-.09,3.32-.44-3.83c-.24-2.11-.64-6.28-.88-9.28-.31-3.81-.67-5.45-1.19-5.45-.42,0-.87.46-1.02,1.03-.4,1.56.05,7.14.84,10.49.8,3.38.35,6.15-1.01,6.15-.78,0-.9.91-.8,6.04.07,3.32-.07,6.5-.31,7.07-.57,1.36.02,2.8,1.15,2.8,1.02,0,1.06-.42.98-9.42-.04-4.16.12-5.8.48-5.01.3.65.56,2.04.58,3.09.03,1.29.33,1.91.92,1.91s.88.59.88,1.77-.29,1.77-.88,1.77c-.49,0-.88.4-.88.88,0,1.07,1.55,1.18,1.97.15.16-.4.26,2.18.22,5.74-.07,6.19-.08,6.25-.27,1.33-.14-3.78-.4-5.15-.98-5.15s-.91,1.49-1.22,5.15c-.24,2.83-.57,6.21-.71,7.51-.15,1.3-.26,3.88-.25,5.74,0,1.86-.22,3.39-.5,3.39h0c-.28,0-.64.46-.79,1.03-.2.76-.29.68-.34-.31-.04-.74-.48-2.33-.99-3.53s-.89-3.25-.85-4.55c.04-1.3.18-5.54.31-9.42.24-7.22.44-36.47.4-59.19-.01-6.96,0-14.52.02-16.78.02-2.27,0-10.05-.07-17.3-.1-11.75-.23-13.44-1.26-15.57-.64-1.32-1.16-2.98-1.16-3.69s-.35-1.43-.78-1.6c-.43-.16-1.56-1.84-2.5-3.73-.95-1.88-2.01-3.74-2.35-4.12-.35-.38-1.41-2.24-2.36-4.14-.95-1.9-1.91-3.53-2.13-3.63-.22-.1-1.22-1.76-2.23-3.7-2.35-4.52-6.57-11.24-9.02-14.38-.25-.32-2.45-3.62-4.89-7.33-2.43-3.71-5.5-7.9-6.82-9.33-1.74-1.89-2.21-2.77-1.74-3.24,1.22-1.22,8.62,7.8,13.17,16.07,1.16,2.11,2.69,4.49,3.4,5.3,2.71,3.08,11.18,17.22,11.18,18.65,0,.34.6,1.26,1.33,2.05.73.79,2.39,3.6,3.68,6.25,1.29,2.65,2.68,4.83,3.09,4.84,1.3.03.79-2.81-1.03-5.67-.97-1.53-1.77-3.02-1.77-3.3s-.76-1.62-1.69-2.98c-.93-1.35-2.55-4.18-3.61-6.29-1.06-2.11-2.65-4.89-3.53-6.18-.88-1.3-2.18-3.42-2.88-4.71-.7-1.3-1.79-3.15-2.42-4.12-.63-.97-1.69-2.77-2.36-3.99-2.12-3.88-7.24-10.61-10.91-14.32-5.14-5.2-7.34-6.2-7.36-3.34,0,1.43-.57,1.91-4.86,4.1-2.67,1.36-5.65,2.59-6.62,2.72-3.34.46-9.22,2.25-11.19,3.42-2.07,1.22-7.59,6.42-10.63,10.01-1.44,1.7-2.36,2.2-4.7,2.55-1.72.26-3.2.86-3.64,1.48-.91,1.3-6.64,4.15-8.35,4.15-.7,0-3.69.82-6.64,1.83-5.32,1.81-5.38,1.82-7.65.79-2.01-.91-2.58-.94-4.64-.26-1.82.6-3.04.63-5.44.13-1.7-.36-4.82-.83-6.92-1.05-2.11-.22-4.54-.76-5.42-1.21s-2.23-.81-3-.81c-2.74,0-5.08-1.26-6.38-3.44-1.54-2.57-4.37-5.41-6.4-6.42-5.55-2.77-9.55-5.37-10.22-6.63-.43-.81-1.68-2.42-2.79-3.57-1.22-1.28-2.31-3.24-2.78-5.01-.42-1.6-1.41-3.58-2.19-4.39-2.37-2.48-3.35-6.16-3.58-13.54-.12-3.73-.38-7.87-.59-9.22-.29-1.88-.07-3.05.94-5.08q1.35-2.7.29-10.74c-.58-4.41,1.97-9.38,6.51-12.68,1.85-1.34,5.58-6.18,5.58-7.23,0-1.24,2.48-5.86,4.42-8.23.85-1.04,1.87-2.29,2.26-2.78.39-.49,1.05-1.71,1.48-2.73s1.94-3.11,3.37-4.65c5.08-5.46,2.54-5.87-6.6-1.08-6.85,3.59-9.72,4.26-19.7,4.61-2.78.1-6.89.49-9.15.87-4.56.77-8.4.23-10.24-1.43-1.9-1.72-2.18-8.7-.59-15.19.73-2.98,1.53-5.95,1.79-6.6.26-.65.62-3.2.8-5.67.18-2.47.58-5.15.89-5.96.31-.81,2.36-3.03,4.57-4.93,8.42-7.28,9.4-8.5,9.79-12.2.2-1.94.81-3.93,1.47-4.77.62-.79,1.6-2.67,2.17-4.18.95-2.49.96-2.84.13-3.67-.83-.83-1.31-.8-5.12.41-3.91,1.24-4.55,1.28-9.31.62-2.81-.39-5.84-1.07-6.73-1.53-.89-.45-2.39-1.23-3.34-1.73-1.58-.83-2.9-2.07-9.84-9.24-1.34-1.38-3.24-3.12-4.23-3.86-2.64-1.97-7.33-12.49-8.3-18.63-.34-2.14-.9-3.27-2.17-4.33-4.3-3.6-6.12-5.64-7.37-8.23-.74-1.54-2.09-3.98-3-5.42-2.89-4.58-2.13-8.94,2.18-12.55.97-.81,2.83-3.52,4.12-6.02,2.58-4.98,3.7-6,9.4-8.59,3.15-1.43,4.59-1.73,8.11-1.71,2.85.02,4.92.36,6.18,1.03,4.65,2.45,10.73,5.45,13.71,6.76,1.78.78,4.17,2.24,5.3,3.24,4.83,4.27,5.68,4.84,7.24,4.84.9,0,2.3-.43,3.11-.96,1.76-1.16,6.85-.83,9.77.63,2.08,1.04,4.42,1.15,7.74.38,2.63-.61,5.05-.04,10.18,2.38,3.7,1.75,4.96,2.06,4.96,1.22,0-1-2.58-5.8-4.29-7.97-3.18-4.04-4.48-6.21-5.1-8.54-.34-1.26-1.26-3.23-2.04-4.38-2.84-4.19-3.42-6.04-3.04-9.68.2-1.88.55-5.58.79-8.24.24-2.66.77-5.16,1.17-5.57.98-.98.93-2.84-.15-5.41-.49-1.16-.88-3.68-.88-5.6,0-4.41,1.04-5.77,5.66-7.48,3.57-1.32,3.67-1.43,6.35-7.3.85-1.87,3.79-3.56,7.83-4.5,4.18-.97,10.09.17,15.17,2.94,1.96,1.07,5.01,2.42,6.78,3,6.01,1.98,8.21,3.25,10.75,6.24,1.38,1.63,4.11,4.6,6.06,6.6,4.14,4.26,5.31,7.26,6.27,16.09.53,4.85.47,5.98-.38,8.22-.55,1.43-1.23,2.6-1.51,2.6-1.26,0-1.69,2.28-1.03,5.45.64,3.03.58,3.44-.91,6.47-1.3,2.65-1.5,3.64-1.12,5.47.25,1.23.85,2.43,1.33,2.68,2.12,1.09,7.06,2.9,7.91,2.9,2.51,0,5.9-1.66,7.98-3.91,2.17-2.34,2.27-2.64,2.67-7.79.38-4.81.59-5.54,2.11-7.13,1.47-1.54,1.69-2.22,1.69-5.22,0-3.17.27-3.88,3.29-8.69,4.17-6.65,6.01-9.07,6.9-9.07.39,0,2.25-1.05,4.13-2.33,4.33-2.94,8.88-4.63,11.8-4.38,3.58.31,3.91.88,3.91,6.75,0,3.81.38,6.42,1.41,9.79.78,2.53,1.59,5.36,1.8,6.31.69,3.04.38,15.88-.46,18.65-.86,2.85-3.55,6.72-8.03,11.54-2.09,2.25-3.02,3.84-3.56,6.08-.4,1.67-1.24,3.51-1.87,4.1-2.12,1.97-2.83,6.55-2.44,15.66.36,8.25.34,8.36-1.28,11.68-.9,1.84-2.4,3.89-3.33,4.55-.93.66-1.69,1.52-1.69,1.9s1.13,1.29,2.5,2.03c3.6,1.91,14.19,14.38,16.13,18.99.48,1.13,1.5,2.72,2.27,3.53,3.75,3.94,8.12,10.66,9.84,15.17,1.02,2.67,2.17,4.86,2.55,4.86s1.6-.6,2.7-1.34c2.89-1.94,11.48-6,15.25-7.21,5.78-1.85,6.68-2.27,8.61-3.96,1.25-1.1,2.97-1.85,5.04-2.21,1.73-.3,4.86-.86,6.96-1.25,2.11-.39,4.87-.87,6.15-1.06,2.14-.32,2.46-.63,4.12-3.93,1.58-3.13,4.04-7.02,5.01-7.9.18-.16.97-1.49,1.76-2.94.79-1.46,1.79-3,2.21-3.43s.77-1.01.77-1.28.34-.86.76-1.28c.42-.43,1.91-2.3,3.31-4.16s2.73-3.39,2.95-3.39,1.82-1.86,3.54-4.13c1.73-2.27,4.46-5.12,6.08-6.33,5.21-3.89,10.66-7.64,13.53-9.31,1.54-.89,2.8-1.97,2.8-2.4s-1.33-2.59-2.94-4.81c-1.62-2.22-2.94-4.46-2.94-4.97s-.21-1.02-.48-1.13c-.89-.37-4.12-6.67-5.06-9.87-.52-1.76-.94-4.88-.94-6.94v-3.74l1.85.96c5.29,2.74,14.23,5.22,19.68,5.48,1.31.06,4.31-.29,6.66-.79,2.35-.5,5.19-.9,6.3-.9,2.55,0,2.56-.41.19-7.66-1.01-3.08-2.04-6.92-2.29-8.54-1.09-6.99-5.12-13.87-9.3-15.89-2.23-1.08-2.47-1.4-2.47-3.34,0-2.55.58-2.87,5.2-2.84,4.92.03,20.34,3.58,26.03,5.99,3.61,1.53,12.56,7.35,14.67,9.54,1.89,1.97,4.15,2.81,4.15,1.56,0-.3-.42-2.36-.94-4.56-1.05-4.46-.88-8.93.71-18.21,1.07-6.27.46-10.9-1.6-12.19-1.15-.72-1.61-4.74-.61-5.36.94-.58,5.11.97,8.33,3.1,6.03,4,17.94,16.87,19.16,20.71.35,1.09,2.02,1.67,2.09.72.02-.24.14-3.22.26-6.63.13-3.4.62-7.41,1.09-8.9.81-2.55,1.36-3.75,4.6-10.09.94-1.84,1.29-3.61,1.33-6.72.02-2.32.23-4.41.46-4.63.65-.65,2.14,1.16,3.42,4.16.78,1.82,3.46,5.1,7.96,9.74,7.07,7.29,9.81,11.69,11.52,18.47.37,1.48,1,2.69,1.4,2.69s1.45-1.87,2.35-4.15,2.99-6.08,4.66-8.45c6.39-9.07,6.5-9.31,6.66-15.09.08-2.75.15-5.47.17-6.04.06-1.77,1.44-1.14,4.52,2.06,3.07,3.18,5.52,6.93,5.52,8.43,0,.47.24.85.54.85.76,0,3.45,7.3,4.23,11.48.36,1.94.69,7.44.74,12.22.05,5.39.31,8.69.68,8.69.33,0,1.89-.69,3.48-1.54s3.57-1.6,4.41-1.69c.84-.08,3.3-.45,5.47-.82,3.92-.67,11.5-.44,16.08.5,6.07,1.24,8.72,2.14,14.44,4.95,5.08,2.49,6.23,3.3,6.55,4.61.64,2.59-.44,3.27-5.67,3.58-5.28.32-8.62,1.58-13.08,4.94-3.83,2.89-4.35,3.49-6.53,7.51Z"/>
    <path d="M212.39,210.73c1.11-.22,2.41-2.01,1.86-2.57-.6-.6-2.83.86-2.83,1.85,0,.52.41.83.97.72Z"/>
    <path d="M221.41,245.9c-1.43,1.3-1.5,3.04-.13,3.4,2.66.7,3.09.46,3.09-1.67,0-2.49-1.29-3.24-2.97-1.73Z"/>
    <path d="M395.5,112.8c-.63.48-2.19.86-3.48.86-2.3,0-2.32-.02-1.27-1.18.59-.65,1.4-1.18,1.82-1.18,1.04,0,2.6-1.66,2.6-2.76,0-.75-.49-.84-2.8-.5-2.8.41-5.45,2.19-5.45,3.65,0,.43-.51.78-1.14.78-1.63,0-2.25,2.34-.88,3.34h0c.69.51,2.87.78,6.22.78,4.56,0,5.34-.16,6.76-1.38,2.73-2.35.5-4.61-2.39-2.43ZM389.52,110.86c.62-.73,1.54-1.3,2.06-1.28.8.04.81.1.06.37-.49.18-1.41.75-2.06,1.28q-1.17.95-.06-.37ZM391.34,115.3c-4.38.04-5.59-.21-5.59-1.14,0-.32.29-.4.64-.18.35.22,2.54.59,4.86.84l4.22.44-4.12.03Z"/>
    <path d="M432.73,67.02c.99-1.95,2.48-6.26,3.17-9.16.33-1.38.84-2.5,1.14-2.5.72,0,.21,2.15-1.89,7.99-2,5.57-2.03,5.89-.68,6.68h0c1.63.95,3,.74,3.71-.59.74-1.38,2.14-3.16,3.64-4.62,2.28-2.22,3-5.82,2.97-14.77-.03-7.87-.17-8.95-1.8-13.84-.97-2.92-2.12-6.1-2.55-7.07-1.11-2.51-4.64-6.77-5.6-6.77-.56,0-.82.77-.83,2.5-.03,5.53-1.12,8.03-6.98,16.05-4.8,6.57-7.73,14.66-7.73,21.3v4.82l3.24.34c10.23,1.06,9.43,1.09,10.18-.37ZM420.49,62.28c0-5.45,3.33-14.14,7.73-20.17,5.73-7.85,6.94-10.54,6.98-15.61l.02-2.06,1.48,1.77c1.82,2.18,2.84,4.41,5.07,11.09,1.55,4.65,1.74,6,1.75,12.66.02,7.93-.73,11.41-2.99,13.85-2.28,2.45-3.55,4.1-3.55,4.6h0c0,.27-.4.5-.88.5-1.18,0-1.13-.42.65-5.35.84-2.34,1.57-5.47,1.62-6.96.08-2.52-.01-2.71-1.38-2.71-1.25,0-1.58.4-2.18,2.65-.85,3.22-2.34,7.51-3.19,9.18-.85,1.68-3.35,1.21-3.83-.71-.59-2.35,0-4.03,5.14-14.68,2.67-5.51,3.04-8.71.99-8.41-1.23.18-1.76.96-4.14,6.08-.45.97-1.11,2.3-1.47,2.94-1,1.81-2.28,5-3.31,8.25-.69,2.15-.8,3.55-.41,5.21.5,2.14.45,2.25-.75,1.92-.7-.19-1.74-.35-2.31-.35-.87,0-1.03-.58-1.03-3.69Z"/>
    <path d="M371.45,79.72c4.39-1.9,4.88-2.19,4.88-2.86,0-.41.65-.59,1.62-.45.89.13,2.13-.15,2.76-.61,1.21-.9,1.22-.8-1.17-11.01-.25-1.08-.19-1.23.22-.59.31.49,1.02,2.94,1.57,5.45.61,2.76,1.3,4.56,1.75,4.56,1.26,0,6.79-2.48,6.79-3.05,0-.29-.48-1.05-1.06-1.68-.58-.63-1.42-2.54-1.85-4.25-.43-1.71-1.54-4.72-2.47-6.69-.93-1.97-1.68-3.88-1.68-4.24,0-1.19-7.9-11.09-10.95-13.73-6.38-5.52-9.28-7.59-10.58-7.59-.84,0-.91.49-.53,3.68.67,5.63.65,6.36-.25,10.16-.47,2.01-.85,6.71-.87,10.9-.04,8.42.89,11.95,5,18.98,2.55,4.37,3.13,4.63,6.82,3.03ZM375.49,74.06c-.34.34-3.19-5.83-3.6-7.8-.2-.97.57.34,1.73,2.91,1.15,2.57,1.99,4.77,1.87,4.9ZM361.81,48.29c1.02-2.85,1.17-6.31.45-10.7l-.45-2.74,1.52.98c1.66,1.07,2.86,2.04,7.36,5.92,3.04,2.63,10.95,12.54,10.95,13.73,0,.36.75,2.27,1.67,4.24s2.02,4.92,2.44,6.54c.42,1.62,1,3.2,1.27,3.5.28.31.5.75.5.97,0,.48-3.61,1.83-3.96,1.47-.13-.13-.63-1.92-1.11-3.98-2.33-10.01-6.99-19.35-9.64-19.35-1.94,0-2.02,2.16-.18,4.57,1.99,2.6,4.29,7.23,4.29,8.6,0,.54.27,1.43.6,2,.33.56,1.09,3.01,1.69,5.44.99,4,1,4.49.16,5.16-1.22.98-1.38.77-4.14-5.74-1.86-4.37-2.66-5.64-3.67-5.79-1.21-.19-1.27-.02-1,2.83.17,1.75,1.07,4.53,2.13,6.6,1.01,1.97,1.69,3.82,1.5,4.13-.29.47-1.88-1.67-4.68-6.34-.42-.69-.98-.91-1.69-.63-1.47.56-.89,3.96,1.13,6.6h0c1.47,1.93,1.48,2,.35,2.6-1.03.55-1.42.18-3.49-3.38-3.96-6.78-5.02-10.64-4.98-18.1.02-4.41.34-7.33.99-9.13Z"/>
    <path d="M468.91,90.86c-1.85.18-4.17.74-5.16,1.24-1.93.99-9.44,2.72-11.79,2.72-1.01,0-1.43.33-1.43,1.1,0,.61-.16,1.9-.35,2.88-.31,1.55-.14,1.85,1.33,2.43,1.61.63,1.59.65-.53.34l-2.21-.32v2.77c0,3,1.05,4.79,5.16,8.79,2.47,2.4,8.63,5.52,12.21,6.19h0c1.3.24,3.68.34,5.3.22,1.62-.12,6.32-.38,10.45-.59,4.75-.23,7.51-.6,7.51-1,0-1.06-1.39-4.55-1.81-4.55-.22,0-.71-1.26-1.09-2.8-2.07-8.25-2.75-10.07-4.82-12.82-3.94-5.24-7.53-7.1-12.76-6.6ZM464.37,97.17c2.18.36,1.36.42-3.12.24-3.58-.15-6.54,0-7.21.37-.66.35-1.15.38-1.15.07,0-1.32,5.6-1.64,11.48-.67ZM480.5,98.63c2.06,2.74,2.56,4.06,4.78,12.67.38,1.46,1.08,3.27,1.56,4.03.48.76.78,1.47.66,1.59-.45.45-17.96,1.14-20.21.8-3.43-.52-9.67-3.64-12.2-6.11-3.26-3.17-5.16-5.86-5.16-7.29,0-1.52.84-1.58,5.3-.39,3.47.93,5.3.72,5.3-.6,0-1.05-1.29-1.71-5.18-2.62-1.72-.4-3.03-.82-2.92-.93.88-.88,7.6-1.16,12.28-.51,4.7.65,5.61.97,7.25,2.56,1.03,1,2.49,1.82,3.24,1.82,1.19,0,1.31-.2.96-1.62-.22-.89-.82-2.08-1.32-2.64-1.45-1.61-6.53-3.23-11.64-3.71l-4.7-.44,3.19-.82c1.75-.45,3.49-1.06,3.85-1.36.36-.3,1.77-.73,3.13-.94,4.14-.66,8.06,1.5,11.84,6.51ZM472.03,99.23l1.33,1.12c.73.62,1.33,1.21,1.33,1.33,0,.47-.47.12-1.53-1.12l-1.12-1.33Z"/>
    <path d="M416.08,77.15c-2.38,0-2.65.14-2.65,1.37,0,.76.18,1.55.39,1.77.72.72,3.04.41,3.98-.53,1.72-1.72,1.14-2.61-1.72-2.61ZM414.88,78.89c-.19-.31.2-.56.86-.56s1.21.1,1.21.23c0,.56-1.76.84-2.08.33Z"/>
    <path d="M336.13,96.05h0c2.19,1.57,4.51,2.86,5.16,2.87,1.16.02,5-3.59,5-4.7,0-.31-1.06-1.26-2.36-2.12s-2.36-1.63-2.36-1.72c0-.6,2.49.68,3.59,1.85.73.78,1.56,1.42,1.83,1.42.93,0,5.19-3.1,5.17-3.76,0-.36-1.6-1.85-3.54-3.31-1.94-1.46-3.9-2.98-4.36-3.39s-1.12-.74-1.47-.74-.63-.28-.63-.62c0-.82,2.88.91,6.63,3.99,4.42,3.62,5.27,3.65,10.68.41,2.52-1.51,4.72-3.11,4.89-3.55.61-1.58-11.99-14.85-16.12-16.98-1.24-.64-2.91-1.66-3.72-2.26-3.15-2.36-10.1-4.72-19.59-6.65-3.83-.78-7.22-1.42-7.53-1.42-1.07,0-.55,2.28.93,4.04,1.67,1.99,4.99,10.97,4.99,13.52,0,2.27,3.16,11.44,5.09,14.76,2.46,4.24,3.45,5.31,7.72,8.37ZM319.45,58.26l-1.49-1.55,6.5,1.37c9.14,1.93,15.84,4.24,18.88,6.52.81.61,2.48,1.62,3.72,2.26,4.24,2.19,16.44,15.07,15.08,15.91-.4.25-.94-.04-1.27-.68-1.07-2.04-9.26-9.63-11.33-10.5-1.12-.47-2.63-1.4-3.34-2.07s-1.77-1.21-2.33-1.21-1.2-.26-1.4-.59c-.2-.32-1.01-.59-1.8-.59-2.37,0-1.8,2.99.72,3.77.7.22,2.21,1.12,3.36,1.99,1.15.88,3.2,2.26,4.56,3.07,2.84,1.69,8.77,7.41,8.77,8.46,0,.8-3,2.73-4.25,2.73-.46,0-1.88-.88-3.15-1.96-3.75-3.17-6.91-5.11-8.34-5.11-1.09,0-1.34.32-1.34,1.77,0,.97.28,1.77.61,1.77s.93.26,1.33.58c.39.32,2.15,1.69,3.9,3.04l3.19,2.45-1.37,1.11c-1.35,1.09-1.39,1.09-2.9-.31-.84-.78-1.85-1.52-2.23-1.64-1.01-.32-6.07-6.97-6.07-7.99,0-.55-.47-.79-1.33-.67-2.11.3-2.04,2.89.18,6.21,1.9,2.84,6.23,7.23,7.13,7.23.27,0,.49.28.49.61s-.6,1.25-1.33,2.02l-1.33,1.41-3.98-2.83c-4.26-3.03-5.26-4.11-7.72-8.35-1.93-3.33-5.09-12.49-5.09-14.76,0-2.65-3.42-11.78-5.05-13.48Z"/>
    <path d="M460.34,121.22c-1.35-.69-3.62-2.27-5.04-3.52-3.14-2.76-4.47-2.98-3.95-.65.35,1.55.33,1.57-.54.46-.5-.64-1.18-2.23-1.51-3.53-.95-3.71-1.03-3.85-2.28-3.85-3.22,0-2.03,9.21,2.59,20.17,1.11,2.62.74,2.94-.54.47-1.42-2.74-4.96-12.85-4.63-13.18.52-.52-.44-2.75-1.17-2.73-.38.01-1.48.66-2.43,1.44l-1.73,1.41.7,5.27c.39,2.9,1.1,6.39,1.58,7.77.49,1.37.88,3.06.88,3.75,0,2.36,3.41,8.32,6.86,11.98,2.5,2.65,4.75,4.31,8.16,6.02h0c2.59,1.3,5.16,2.36,5.71,2.37.95.02,3.38-3.09,5.14-6.59,1.89-3.76-.82-19.36-4.21-24.18-.63-.9-2.25-2.19-3.6-2.88ZM464.79,150.91h0c-.8,1.21-1.75,2.2-2.12,2.2-2.17-.04-9.23-4.5-12.35-7.82-3.31-3.52-6.86-9.59-6.86-11.76,0-.57-.5-2.96-1.11-5.3-1.83-6.99-2.06-9.67-.89-10.32.87-.49,1.3.29,3.26,5.92,1.24,3.57,2.79,7.39,3.44,8.5s1.19,2.36,1.19,2.79c0,1.31,2.38,3.87,3.59,3.87,1.74,0,1.95-1.45.59-3.95-2.94-5.38-6.42-15.13-6.92-19.37-.42-3.57.62-4.89,1.25-1.58.67,3.55,1.91,5.46,3.56,5.46.98,0,1.46-.33,1.46-1,0-.77.44-.58,1.91.82,1.05,1,3.02,2.37,4.37,3.05,3.16,1.58,4.4,3.41,6.27,9.24,2.89,9,2.72,14.15-.65,19.25ZM450.62,133.76c.11-.3.66.35,1.22,1.45.56,1.1.9,2,.75,2-.51,0-2.17-2.91-1.97-3.46Z"/>
    <path d="M439.01,130.15c-.5-2.11-1.07-4.95-1.26-6.33-.26-1.93-.59-2.5-1.44-2.5-.61,0-1.1.2-1.1.44,0,.24-1.2,1.24-2.67,2.21l-2.67,1.77.3,2.94c1.14,11.08,1.11,12.31-.5,17.9-.86,2.98-1.4,5.67-1.21,5.98.19.31.07.56-.28.56-.95,0-.75-2.21.59-6.77,1.05-3.59,1.16-5.05.82-11.34-.43-8.06-.5-8.15-4.39-5.97-2.43,1.37-2.65,2.04-4.25,13.33-.38,2.67-.94,4.86-1.25,4.86-.67,0-.07-7.47.79-9.72.75-1.98.76-5,.01-5-.32,0-2.29.84-4.38,1.88-2.81,1.39-3.9,2.27-4.19,3.39-1.09,4.21-1.25,8.44-.54,14.51.65,5.6,1.1,7.21,3.17,11.41,3.14,6.35,5.19,9.08,8.95,11.91h0c3.51,2.64,4.7,2.68,5.45.19,1.33-4.39,3.07-8.44,4.6-10.7.91-1.35,1.66-2.75,1.66-3.09s.21-.63.48-.63.96-1.13,1.54-2.5,1.43-3.27,1.87-4.2c1.79-3.76,2.25-8.25,1.52-14.61-.38-3.34-1.11-7.79-1.62-9.9ZM437.91,153.41c-.42.97-1.25,2.89-1.84,4.27-.59,1.38-1.29,2.5-1.55,2.5s-.48.28-.48.63-.75,1.74-1.67,3.09c-1.74,2.57-4.81,9.79-4.81,11.3h0c0,1.3-.6,1.09-3.48-1.19-3.32-2.64-5.36-5.44-8.3-11.39-3.27-6.62-4.51-16.31-2.9-22.69.57-2.26.97-2.68,3.9-4.12,2.81-1.38,3.21-1.45,2.86-.54-.78,2.02-1.51,6.83-1.51,9.98s.03,3.16,1.76,3.16c1.97,0,2.17-.46,2.56-5.89.13-1.78.57-4.99.98-7.13.61-3.23,1.02-4.05,2.38-4.86.9-.53,1.76-.97,1.91-.97s.45,2.58.67,5.74c.35,5.09.23,6.31-1.07,10.71-1.79,6.11-1.56,8.28.9,8.28,1.44,0,1.69-.23,1.69-1.58,0-.87.56-3.59,1.25-6.04,1.09-3.88,1.2-5.35.87-11.37-.21-3.8-.51-7.25-.66-7.66-.22-.58,2.41-2.84,4.45-3.84.18-.09.67,1.5,1.1,3.53.43,2.03,1.12,5.15,1.53,6.93,1.78,7.6,1.59,14.23-.56,19.14Z"/>
    <path d="M434.87,116.13c1.45-1.86,2.39-2.76,5.27-5.07,2.25-1.8,2.79-3.28,1.22-3.28-.63,0-.36-.48.82-1.47.96-.81,2.01-1.47,2.33-1.47s.73-.46.91-1.03c.18-.57.82-2.49,1.42-4.27,1.44-4.28,1.2-14.01-.39-15.72-.56-.6-1.51-1.84-2.1-2.74-1.37-2.09-8.03-6.87-9.58-6.87-.65,0-2.08-.37-3.17-.83-1.1-.46-4.64-1.15-7.88-1.54-4.93-.6-7.37-.56-15.14.25-5.09.53-9.86,1.2-10.6,1.51s-3.46,1.34-6.06,2.3c-2.59.97-6.04,2.42-7.66,3.22-1.62.81-5.93,2.67-9.59,4.13-4.19,1.68-8.13,3.76-10.67,5.65-2.21,1.64-4.23,2.99-4.49,2.99s-1.28.62-2.28,1.38-2.88,1.88-4.17,2.49c-4.3,2.03-10.35,8.44-13.21,13.99-2.57,5.01-2.58,5.03-2.26,9.92.35,5.35,1.53,8.11,5.35,12.59,3,3.51,9.45,7.12,14.61,8.18h0c4.87,1,20.83.89,23.56-.17.86-.33,3.78-.91,6.48-1.27,2.7-.37,6.64-1.19,8.74-1.83,2.11-.64,4.88-1.48,6.18-1.86s3.18-1.43,4.2-2.33c1.02-.89,2.42-1.63,3.11-1.63,2.28,0,8.55-3.28,16.23-8.49,4.16-2.82,8.12-5.84,8.8-6.71ZM359.59,135.53c-.17-.28.51-.34,1.52-.14,1.15.24,2.02.87,2.32,1.69h0c.27.72.43,1.29.36,1.27-1.25-.45-1.6-.78-1.6-1.47,0-.46-.51-.83-1.14-.83s-1.29-.23-1.46-.51ZM367.49,140.01c-2.43,0-5.34-.21-6.48-.48-1.49-.34-1.09-.39,1.41-.16l3.47.31-.38-1.89c-.21-1.04-.38-2.26-.38-2.7s-.61-.81-1.44-.81-1.63-.3-1.85-.67c-.29-.46.03-.57,1-.35.78.18,3.2.66,5.39,1.08s3.98.97,3.98,1.23-1.07.65-2.39.86c-2,.32-2.36.58-2.21,1.63.13.91.74,1.34,2.24,1.61,1.38.24.6.36-2.36.36ZM369.55,130.43c2.25.74,2.28.78.59.81-.97.02-2.56-.33-3.53-.77-2.37-1.08-.31-1.11,2.94-.04ZM372.36,138.4c-1.82,0-3.15-.15-2.97-.34.56-.56,6.93-.74,6.59-.18-.18.29-1.81.52-3.62.52ZM381.89,131.96c.31.3.44.5.29.45-.15-.05-1.19-.2-2.33-.34-1.13-.13-2.33-.52-2.65-.86-.75-.78,3.86-.05,4.68.75ZM380.15,133.69c-.2.32-.73.59-1.18.59s-.98-.26-1.18-.59c-.21-.34.3-.59,1.18-.59s1.39.25,1.18.59ZM385.11,136.25c-.13.12-1.44.39-2.9.6-1.85.27-2.38.21-1.77-.2.79-.53,5.25-.91,4.66-.39ZM394.09,133.46h0c-1.83.15-4.19.37-5.24.5-1.05.13-2.06-.01-2.24-.32-.19-.3-.92-.57-1.63-.6-.88-.03-1.01-.15-.41-.38.49-.18,1.02-.53,1.18-.76.16-.23,1.16-.61,2.21-.84,1.69-.37,1.91-.27,1.91.84,0,1.19.19,1.23,3.68.85,2.02-.22,4.17-.65,4.76-.96s1.21-.43,1.38-.26c.63.63-2.41,1.68-5.6,1.93ZM389.28,123.66c-.16,0-.69-.26-1.18-.57-.66-.43-.37-.57,1.18-.57s1.84.14,1.18.57c-.49.31-1.02.57-1.18.57ZM401.29,128.92c-.48-.4-1.45-.49-2.43-.24h0c-.89.23-2.58.46-3.74.51-1.74.07-2.07-.1-1.85-.95.15-.58.83-1.03,1.54-1.03s1.86-.41,2.58-.92c.89-.62,1.31-.69,1.31-.22s.66.59,1.93.39c1.61-.26,2.04-.08,2.58,1.07.52,1.1.47,1.45-.24,1.72-.49.19-1.25.04-1.69-.32ZM404.29,114.71c-.94.8-3.92,1.95-3.56,1.37.18-.29,1.19-.83,2.23-1.2,1.05-.36,1.64-.44,1.33-.17h0ZM404.63,119.9c.04-1.19.06-1.18.57.09.68,1.7,3.1,1.75,5.76.13,1.72-1.05,2.05-1.09,2.82-.31s.63.98-1.28,1.78c-1.19.5-2.46.9-2.84.9s-1.24.39-1.93.88c-1.16.81-1.23.79-.95-.29.24-.91.01-1.17-.98-1.17-.71,0-1.82.29-2.47.64-.65.35-1.33.49-1.51.32-.18-.18.38-.64,1.23-1.03.93-.42,1.56-1.2,1.59-1.94ZM406.35,109.83c2.35-2.82,2.54-3.01,1.9-1.76h0c-.33.65-1.23,1.71-1.99,2.35-1.33,1.13-1.33,1.1.08-.6ZM409.3,124.53c0,.16-.78.7-1.74,1.19-.96.49-2.08.88-2.5.85-.51-.03-.48-.15.12-.38.49-.18,1.61-.7,2.5-1.15s1.62-.69,1.62-.52ZM400.98,121.03c-.85.46-2.71.99-4.12,1.16-2.23.28-2.07.17,1.25-.84,4.55-1.39,4.91-1.43,2.87-.32ZM406.07,129.87c-1.3.8-2.62,1.45-2.94,1.45s.47-.65,1.77-1.45c1.3-.8,2.62-1.45,2.94-1.45s-.47.65-1.77,1.45ZM415.44,123.75c-.62.85-2.06,1.89-3.19,2.29-3.58,1.28-3.86,1.33-2.65.43.65-.48,1.84-1.08,2.65-1.32.81-.24,2.11-1.01,2.9-1.7l1.43-1.26-1.13,1.55ZM420.54,119.82c-2.04,1.05-1.89,1.03-2.87.41-.52-.33-.03-.77,1.62-1.41,2.8-1.1,3.79-.31,1.25,1.01ZM423.01,114.99c-.14-.4-.75-.74-1.35-.74-.92,0-1.04-.33-.76-2.06.29-1.78.17-2.06-.84-2.06-.68,0-1.76.85-2.57,2.03-1.53,2.23-3.56,3.43-4.94,2.9-1.15-.44-1.15-1.39,0-1.39.49,0,.88-.4.88-.88s-.4-.88-.88-.88-.88.2-.88.46c0,.69-5.24,1.78-5.46,1.13-.1-.3.69-1.42,1.75-2.48,2.38-2.38,2.68-5,.57-5-.83,0-1.88.69-2.69,1.8-.73.99-1.97,2.04-2.76,2.34-1.56.59-1.84,1.7-.73,2.81.55.55.48.71-.29.71-1.37,0-3.36,2.09-3.36,3.53s2.1,1.59,3.66.18c1-.9,1.07-.9.73-.03-.35.92-3,2-8.28,3.35-3.18.82-11.77.96-12.73.21-.42-.32-2.08-.95-3.7-1.4-2.8-.77-2.86-.83-1.18-1.13,2.61-.47,2.75-2.6.24-3.48-1.04-.36-2.64-.66-3.57-.66-2.22,0-2.26,1.73-.06,3.09l1.62,1-1.62.02c-1.3.01-1.62.29-1.62,1.38,0,1.76,3.19,3.35,6.74,3.35,1.42,0,2.68.3,2.8.67.12.37,1.93.86,4.02,1.1,2.09.24,3.44.47,3,.51-.54.05-.69.54-.45,1.48.3,1.2.09,1.45-1.41,1.75-1.1.22-1.76.72-1.76,1.32,0,.75-.36.89-1.62.6-.89-.2-3.05-.54-4.79-.75l-3.17-.38.27,1.86c.25,1.71.14,1.86-1.39,1.86-1.65,0-2.21-.77-1.08-1.47,1.45-.9.35-1.87-2.83-2.53-5.16-1.07-6.59-.95-6.59.53,0,.89-.26,1.14-.94.88-.52-.2-1.61-.53-2.44-.74-1.45-.36-1.49-.3-1.1,1.77.25,1.36.18,2.15-.21,2.15-.34,0-.62-.4-.62-.88s-.29-.88-.65-.88-1.14-.63-1.75-1.39c-1.3-1.65-4.28-3.01-5.54-2.52-.49.19-.89.89-.89,1.55,0,1.37,3.12,3.54,5.1,3.54,2.26,0,2.98.56,2.69,2.09-.16.83,0,1.44.38,1.44s.66.53.66,1.18h0c0,2.05-2.81,1.39-8.45-1.97-6.74-4.02-10.81-9.79-11.41-16.17-.33-3.56-.23-3.96,2.23-8.75,2.86-5.56,8.91-11.97,13.21-14,1.29-.61,3.17-1.73,4.17-2.49,1-.76,2.03-1.38,2.28-1.38s2.27-1.34,4.49-2.99c2.54-1.88,6.48-3.97,10.67-5.65,3.66-1.46,7.97-3.32,9.59-4.13,1.62-.81,5.06-2.26,7.66-3.22,2.59-.97,5.31-2,6.04-2.3.73-.3,5.24-.95,10.01-1.46,9.27-.98,16.97-.53,21.27,1.25,1.09.45,2.52.82,3.16.82,1.55,0,8.21,4.78,9.58,6.87.59.9,1.58,2.18,2.2,2.83,1,1.06,1.1,1.88.87,7.38-.26,6.1-1.64,11.13-3.08,11.21-.32.02-1.48.8-2.58,1.73-1.61,1.38-1.92,1.98-1.61,3.19.28,1.12.09,1.64-.76,2.1-.83.44-1.21.41-1.4-.12-.21-.58-.53-.58-1.53.02-1.2.71-1.25.66-.88-.82.36-1.45.27-1.55-1.15-1.28-1.37.26-1.51.14-1.21-1.04.25-.98.03-1.43-.81-1.7-.84-.27-1.07-.75-.86-1.82.24-1.25.06-1.46-1.24-1.46-.92,0-1.77.47-2.15,1.18-.96,1.79-2.36,1.48-2.36-.52s-1.22-3.21-2.77-2.9c-.85.17-1.02.69-.88,2.62.13,1.75-.07,2.5-.74,2.76-1.49.57-1.11,2.67.56,3.09.81.2,1.47.74,1.47,1.19,0,.48.61.82,1.47.82.92,0,1.47.33,1.47.88,0,1.07.78,1.08,3.71.03,1.97-.7,2.22-.69,2.06.1-.12.58-.96.94-2.4,1.03-1.39.08-2.8.67-3.76,1.55-1.06.97-1.62,1.18-1.8.68ZM378.97,121.85c-.97,0-2.69-.5-3.83-1.12-2.61-1.43-2.31-1.43,2.06-.02,2.73.88,3.13,1.14,1.77,1.14ZM375.41,116.34c-1.1-.82-1.1-.84.19-.52.73.18,1.48.57,1.65.85h0c.5.81-.58.61-1.85-.34ZM355.12,131.88c-.51,0-3.53-1.75-3.53-2.04,0-.62,1.13-.21,2.44.88.76.64,1.26,1.16,1.1,1.15ZM423.44,103.94c0,.77-.25,1.56-.55,1.74-.3.19-.5-.56-.44-1.67.12-2.23.99-2.29.99-.07ZM424.96,120.46c.26-1.05.14-1.5-.42-1.52-.95-.02.71-1.4,3.32-2.75l1.77-.91-1.4,1.52c-.77.83-1.25,1.91-1.07,2.39h0c.2.52-.24,1.25-1.12,1.82-1.43.94-1.45.93-1.08-.54Z"/>
    <path d="M308.89,118.54c1.3.67,3.68,1.44,5.3,1.71,1.62.27,4,.73,5.3,1.04h0c1.81.43,15.01.28,15.39-.17.04-.05.22-2.48.4-5.39.18-2.92.61-6.05.95-6.96.91-2.39.92-2.37-2.46-4.06-4.31-2.16-8.69-3.25-14.87-3.69-5.29-.38-8.47-1.48-4.28-1.48,6.68,0,15.65,2.11,19.41,4.57,2.55,1.67,4.23,1.54,4.5-.34.23-1.63-.83-3.05-2.28-3.05-.58,0-1.88-.88-2.89-1.95-1.01-1.07-3.26-2.72-5-3.66l-3.16-1.71-6.51,1.09c-5.65.94-7.22.99-11.91.39-2.97-.38-6.12-1.07-7-1.52-1.88-.97-7.77-3.25-8.41-3.25-.73,0-.5,2.95.37,4.62.44.86,1.57,3.29,2.49,5.39,3.59,8.17,9.69,15.83,14.66,18.42ZM292.89,93.51l-.83-1.6,2.31.82c1.27.45,3.14,1.24,4.15,1.77s4.64,1.26,8.06,1.65c5.37.6,7.04.56,12.14-.31l5.92-1.01,3.02,1.74c1.66.96,3.77,2.55,4.69,3.54.92.99,2.14,1.79,2.73,1.79s1.39.4,1.79.88c1.07,1.29-.29,1.17-2.26-.2-.86-.6-2.94-1.52-4.62-2.06-3.32-1.06-17.66-2.93-18.51-2.4-.29.18-.52.8-.52,1.39,0,2.05.64,2.23,12.07,3.34,5.17.5,12.41,3.79,11.81,5.36-.18.47-.33,1.11-.33,1.42s-.54.27-1.26-.11c-.69-.37-4.19-.91-7.77-1.2-7.82-.63-13.71-2.65-18.36-6.31-2.08-1.64-3.63-1.63-4.16.03-.34,1.06.07,1.72,2.17,3.53,1.42,1.23,3.06,2.23,3.63,2.23s1.64.38,2.36.84c2.84,1.83,8.63,3.28,13.06,3.28,2.43,0,5.62.32,7.09.71l2.66.71v6.82h-2.5s0,0,0,0c-1.38,0-3.43.11-4.56.24-1.94.22-3.23.07-11.19-1.26-1.78-.3-4.3-1.09-5.59-1.77-4.97-2.59-11.07-10.25-14.66-18.42-.93-2.11-2.06-4.55-2.51-5.43ZM333.33,111.62c0,.32.03.33-1.47-.32-.65-.28-3.43-.53-6.18-.56-4.96-.05-12.16-1.92-13.79-3.58-.35-.36.83-.11,2.63.56,1.98.74,5.84,1.42,9.78,1.74,5.7.46,9.03,1.25,9.03,2.15ZM310.07,106.57c-1.21.01-6.41-4.03-5.24-4.07.35-.01,1.12.51,1.71,1.16.59.65,1.37,1.18,1.75,1.18s1.19.39,1.82.86h0c1.13.85,1.13.86-.03.87Z"/>
    <path d="M262.07,172.89c0,2.28.23,3.19.79,3.19.89,0,1.57-1.32,3.92-7.66,1.8-4.83,4.85-10.5,7.91-14.68,1.08-1.48,3.56-5.07,5.51-7.99,4.93-7.38,13.86-15.49,22.93-20.81,3.98-2.33,4.74-3.93,2.18-4.57-1.59-.4-5.32,1.3-9.97,4.53-1.3.9-4.74,3.26-7.66,5.24-2.94,2-6.2,4.8-7.33,6.28-1.12,1.47-3.19,3.91-4.62,5.41-5.46,5.76-7.03,7.88-11.14,15.01-.9,1.56-2.36,3.77-3.24,4.91-2.4,3.11-2.53,4.09-.8,6.14,1.22,1.45,1.52,2.42,1.52,5ZM261.99,163.82c.69-.86,1.82-2.63,2.5-3.93.69-1.3,1.84-3.15,2.56-4.12.72-.97,1.69-2.47,2.14-3.33.93-1.76,3.87-5.35,7.72-9.42,1.43-1.51,3.51-3.94,4.62-5.4,1.12-1.46,4.15-4.07,6.74-5.78,2.59-1.72,5.37-3.69,6.18-4.4,1.86-1.61,10.01-6.21,10.01-5.64,0,.23-1.39,1.26-3.09,2.28-8.74,5.24-17.58,13.35-22.36,20.51-1.95,2.92-4.43,6.51-5.51,7.99-3.12,4.27-6.13,9.88-8.01,14.96h0c-.96,2.58-1.86,4.81-2,4.96s-.26-.68-.26-1.82c0-1.23-.51-2.73-1.26-3.68l-1.26-1.6,1.26-1.57Z"/>
    <path d="M487.19,63.26c-4.49-1.75-6.05-2.19-9.57-2.72-4.11-.62-15.66-.3-20.07.55-3.47.67-12.02,5.72-13.65,8.06-.69,1-1.61,2.02-2.03,2.28-1.29.79-.86,2.13,1.26,3.99,1.11.98,2.59,2.96,3.29,4.4,1.15,2.38,2.63,3.31,3.65,2.3.51-.51,8.71-4.37,8.71-4.1,0,.13-2.12,1.38-4.7,2.77-4.5,2.42-4.7,2.62-4.7,4.59,0,1.13.16,2.66.35,3.39h0c.42,1.57-.01,1.54,6.35.43,7.65-1.33,11.03-3.83,14.75-10.9,1.7-3.23,3.04-4.81,6.26-7.38,4.34-3.46,8.21-5.53,10.41-5.55,1.84-.02,1.66-1.36-.29-2.12ZM482.8,65.22c-1.53.68-4.63,2.72-6.89,4.52-3.24,2.58-4.57,4.16-6.27,7.39-3.33,6.33-6.89,9.33-12.52,10.54h0c-4.22.91-5.8.84-6.23-.26-.84-2.2-.24-2.95,4.52-5.55,3.56-1.95,4.89-3,5.03-3.98.28-1.96-1.89-1.73-7.02.72-3.16,1.52-4.47,1.88-5.04,1.41-.6-.49-.1-1.23,2.25-3.37,1.65-1.51,3.54-3.11,4.18-3.57,1.86-1.31,8.18-4.37,10.43-5.06,2.63-.8,3.18-2.66.78-2.64-1.89.02-4.84.72-7.85,1.88-3.24,1.25-9.8,5.65-10.89,7.32l-.99,1.51-1.72-1.64c-.94-.9-1.5-1.79-1.24-1.97.26-.18,1.04-1.14,1.73-2.14,1.79-2.56,10.21-7.38,14.23-8.16,4.75-.91,19.41-.74,21.26.26.81.43,2.26.96,3.24,1.17l1.77.38-2.77,1.24Z"/>
    <path d="M406.21,92.47c-3.32.01-4.56.59-4.56,2.12,0,1.19.29,1.4,1.93,1.4,2.17,0,4.55-1.4,4.55-2.68,0-.57-.63-.85-1.91-.84ZM405.18,94.23c-.49.31-1.28.56-1.77.54-.58-.02-.48-.2.29-.54,1.62-.7,2.55-.7,1.47,0Z"/>
    <path d="M332.66,131.65c2.71-.46,5.06-.98,5.22-1.14.17-.17.14-.96-.06-1.77-.3-1.2-.84-1.54-3.01-1.86-3.16-.47-5.01-.23-11.12,1.46-6.5,1.79-15.43,6.65-19.93,10.84-3.71,3.45-9.05,13.2-7.88,14.38.19.19,1.34.05,2.56-.32,4.69-1.4,8.52-1.45,14.87-.19,3.4.67,6.98,1.34,7.95,1.47h0c3.36.47,11.79-.27,14.13-1.25,5.46-2.27,13.84-9.21,13.84-11.45,0-.58-.21-1.06-.46-1.06s-1.45-.97-2.67-2.15c-2.38-2.31-1.98-2.31-6.29.04-3.46,1.89-10.03,4.32-10.34,3.82-.36-.57-.11-.69,6.94-3.19,2.5-.89,4.84-1.97,5.2-2.4.77-.93.36-2.39-1.23-4.29-1.08-1.3-1.33-1.34-3.96-.73-1.54.36-3.86.76-5.16.88s-3.78.79-5.52,1.48c-1.74.69-3.27,1.16-3.38,1.04-.58-.58,5.94-2.88,10.3-3.63ZM315.92,141.24c2.05-2.69,9.87-5.97,17.37-7.3,4.81-.85,5-.84,6.16.31.76.76.99,1.4.63,1.75-.31.31-3.08,1.47-6.16,2.57-5.31,1.91-5.59,2.1-5.59,3.72,0,2.38,1.52,2.44,6.33.25,2.17-.98,4.32-1.79,4.77-1.79s1.51-.55,2.37-1.22l1.55-1.22,2.09,1.97,2.09,1.97-2.24,2.25c-2.71,2.73-7.86,6.24-11.07,7.55h0c-2.41.98-8.6,1.63-11.78,1.24-.97-.12-4.55-.77-7.95-1.45-6.5-1.3-14-1.25-16.53.1-1.19.64-1.2.62-.2-1.31,1.59-3.09,5.62-8.86,7.28-10.39,1.91-1.77,8.6-6.13,12.34-8.02,4.13-2.09,11.64-4.11,15.22-4.08,5.86.04,4.73,1.51-1.92,2.5-2.57.38-5.96,1.45-8.58,2.71-2.38,1.14-4.64,2.08-5.02,2.08-1.4,0-4.44,3.46-4.24,4.83.22,1.56,2.17,2.16,3.1.95Z"/>
    <path d="M412.87,96.59c-4.26,0-5.69.57-5.14,1.99h0c.29.76,1.32.94,5.39.94,3.73,0,5.02-.2,5.02-.77,0-1.57-1.47-2.18-5.27-2.17ZM414.02,98.21c-1.13,0-1.6-.12-1.03-.27s1.49-.15,2.06,0h0c.57.15.1.27-1.03.27Z"/>
    <path d="M400.31,104.24c-3.05,0-4.92,1.14-4.34,2.64.34.89.85.98,3.48.64,3.43-.45,4.29-.99,3.77-2.35-.25-.64-1.13-.92-2.91-.92ZM401.6,105.63c-.13.12-1.17.38-2.31.59-1.45.27-1.8.21-1.18-.2.8-.52,4.07-.89,3.48-.39Z"/>
    <path d="M381.32,105.42c-1.7,0-2.28.34-3.24,1.91-.64,1.05-1.17,2.51-1.17,3.24,0,2.07,2.66,1.81,3.79-.37.48-.93,1.28-1.85,1.78-2.04.5-.19.91-.89.91-1.54,0-.98-.38-1.2-2.07-1.2ZM380.67,107.6c-.61.64-1.45,1.66-1.87,2.28-.42.62-.29.22.3-.89s1.43-2.13,1.87-2.28c.48-.16.36.2-.3.89Z"/>
    <path d="M416.7,103.65c-1.74,0-3.27,1.99-3.27,4.25,0,1.32.27,1.64,1.36,1.64.98,0,1.64-.58,2.36-2.08,1.38-2.88,1.27-3.81-.45-3.81ZM415.74,106.59h0c-.86,1.8-1.13,2.14-1.13,1.39,0-.32.41-1.09.92-1.72.86-1.08.88-1.06.21.33Z"/>
    <path d="M158.35,198.95c.4.75.96,3.66,1.22,6.48.58,6.08,2.48,13.57,3.62,14.3.45.28,1.42.52,2.15.53,1.58.01,3.27.9,5.9,3.1,1.06.89,2.36,1.62,2.88,1.62,1.56,0,5.99-3.11,6.33-4.44.17-.68.98-2.22,1.8-3.43s1.5-2.91,1.52-3.78c.02-.88.48-2.42,1.03-3.43,4.15-7.59,4.24-7.84,4.24-11.31,0-1.91.3-4.33.67-5.38.7-2,.8-5.28.57-17.96-.13-7.18-.25-7.85-1.96-11.4-1.32-2.74-3.24-5.18-7.03-8.91-5.27-5.2-7.8-7.05-8.57-6.29-.23.23-.07.97.35,1.65q.77,1.23-1-.03c-3.62-2.58-4.96-1.02-1.7,1.97,1.07.98,3.24,3.24,4.83,5.02,1.99,2.24,1.45,1.83-1.76-1.33-2.55-2.51-5.07-4.56-5.6-4.56-1.11,0-3.54,3.04-3.54,4.42,0,.52.41,1.78.92,2.82l.92,1.88-1.2-1.47c-.66-.81-1.21-1.67-1.21-1.91,0-.24-.41-.44-.9-.44-1.27,0-1.09,1.75.53,5.38.78,1.74,1.57,3.83,1.77,4.64l.35,1.47-.7-1.47c-.38-.81-1.31-2.86-2.06-4.56-1.03-2.34-1.67-3.09-2.62-3.09-1.15,0-1.24.24-.98,2.8l.28,2.8-.88-2.21c-.67-1.68-1.21-2.21-2.27-2.21-.77,0-1.39.27-1.39.59s-.96.59-2.13.59c-1.76,0-2.08.18-1.85,1.06.23.88-.01,1.02-1.4.82-1.33-.19-1.69-.01-1.73.85-.03.62-.18.78-.34.36-.4-1-1.97-.94-1.97.08,0,.45-.4.97-.88,1.16s-.88,1.01-.88,1.83c0,1.19.29,1.49,1.44,1.49.79,0,1.6.27,1.8.59s.98.59,1.73.59c1.77,0,5.66,3.68,7.46,7.07,1.3,2.44,1.41,3.35,1.45,11.48.03,5.87.29,9.29.78,10.2ZM153.31,170.96c-1.11-.88-1.95-2.09-1.94-2.78.02-1.14.07-1.15.8-.19.85,1.12,3.3,1.42,3.3.4,0-.35-.69-1.8-1.53-3.24-.84-1.43-1.23-2.61-.87-2.61s.9.6,1.19,1.33c.29.73,1.15,1.99,1.9,2.8s1.64,2.27,1.97,3.24c.38,1.11,1.07,1.83,1.86,1.95.98.14,1.42.84,1.96,3.09.66,2.74,1.78,3.72,2.64,2.32.2-.32-.58-3.7-1.75-7.51-2.81-9.22-2.9-9.64-1.56-7.05.64,1.23,2.02,4.67,3.07,7.66,1.05,2.99,2.12,5.71,2.38,6.06.83,1.11,3.89,15.12,4.29,19.69.53,5.99,1.29,8.25,2.8,8.25,1,0,1.13-.26.81-1.54-.21-.85-.63-4.36-.94-7.79-.76-8.63-1.96-14.08-5.02-22.76-1.44-4.09-2.36-7.27-2.03-7.07.33.2.59.72.59,1.14s.37,1.09.83,1.47,1.39,1.87,2.06,3.31c1.25,2.67,2.99,3.53,2.99,1.49,0-1.28-1.83-4.75-2.5-4.76-.24,0-.44-.52-.44-1.15s-.92-3.17-2.05-5.65l-2.05-4.5,2.79,3.09c1.53,1.7,3.44,4.04,4.23,5.21,1.81,2.66,2.72,3.59,3.52,3.59.86,0,.79-.83-.26-3.34-1.09-2.61-6.45-9.92-8.14-11.1-.68-.48-.96-.87-.61-.87.51,0,4.29,3.64,9.54,9.19,1.97,2.09,4.69.02,2.77-2.11-1.22-1.35-1.59-5.32-.46-4.88,1.31.5,6.62,7.28,7.89,10.05.98,2.15,1.28,4.26,1.5,10.67.36,10.25.24,14.54-.44,16.34-.3.79-.55,3.03-.55,4.96,0,3.52-.09,3.75-4.24,11.36-.55,1.01-1.02,2.55-1.03,3.43-.02.88-.7,2.58-1.52,3.78s-1.63,2.74-1.79,3.41c-.17.67-1.22,1.82-2.33,2.55h0c-2.58,1.69-3.28,1.66-4.99-.15-.76-.81-1.7-1.47-2.09-1.47s-1.05-.41-1.47-.92c-.45-.54-1.27-.79-1.99-.61-.67.17-1.59.08-2.04-.19-1.14-.7-3.04-8.21-3.62-14.28-.27-2.81-.79-5.69-1.17-6.39-.42-.78-.72-4.73-.78-10.2-.09-8.68-.14-9-1.82-12.03-.95-1.71-2.6-3.81-3.68-4.67Z"/>
    <path d="M233.22,428.89c0,9.47.04,9.86,1.17,9.86,1.32,0,1.21,1.05,1.51-13.4.17-8.36.11-8.98-.89-8.98-1.56,0-1.78,1.53-1.79,12.51Z"/>
    <ellipse cx="231.74" cy="398.71" rx=".88" ry="1.18"/>
    <path d="M344.56,116.27c-.54.65-.53,1.39.02,3.24h0c.77,2.57.75,2.56,2.74,2.03,1.47-.39,1.64-1.48.68-4.25-.7-2-2.25-2.45-3.44-1.01ZM346.89,120.14c-.49,0-1.19-1.43-1.19-2.44s1.01-.02,1.35,1.25h0c.17.65.1,1.19-.16,1.19Z"/>
    <path d="M234.1,402.83c.67,0,.88-.72.88-2.94s-.22-2.94-.88-2.94-.88.72-.88,2.94.22,2.94.88,2.94ZM234.21,398.85h0c.15.57.15,1.49,0,2.06-.15.57-.27.1-.27-1.03s.12-1.6.27-1.03Z"/>
    <circle cx="231.74" cy="420.2" r=".88"/>
    <ellipse cx="227.62" cy="405.18" rx=".88" ry="1.18"/>
    <path d="M231.74,422.85c-.72,0-.88.95-.88,5.01s.17,5.01.88,5.01.88-.95.88-5.01-.17-5.01-.88-5.01Z"/>
    <path d="M353.99,102.47c-1.46,0-2.99,1.53-2.99,2.99,0,1.31,2.25,1.59,3.42.43s.88-3.42-.43-3.42Z"/>
    <circle cx="227.62" cy="400.77" r=".88"/>
    <path d="M227.62,392.23c-.67,0-.88.72-.88,2.94s.22,2.94.88,2.94.88-.72.88-2.94-.22-2.94-.88-2.94ZM227.68,394.42c-.2.2-.33-.15-.31-.77.03-.69.17-.83.36-.36.17.43.15.93-.05,1.13Z"/>
    <path d="M230.05,355.71c-1,0-1.76,5.04-1.21,7.97h0c.22,1.17.73,2.04,1.2,2.04.63,0,.82-1.13.82-5.01s-.19-5.01-.81-5.01Z"/>
    <path d="M172.52,144.18c1.46.49,9.27,7.09,12.11,10.23,1.62,1.79,3.95,5.22,5.17,7.61,3.89,7.61,5.63,10.55,8.57,14.57,1.58,2.15,3.49,5.04,4.24,6.42.84,1.52,1.8,2.5,2.45,2.5,1.18,0,1.44-1.69.52-3.39-.3-.56-1.13-2.51-1.84-4.33-1.28-3.28-2.04-4.42-5.71-8.63-1.05-1.21-1.91-2.5-1.91-2.87,0-.37-.34-.8-.76-.97-.42-.16-2.06-2.51-3.64-5.22-2.14-3.65-4.68-6.71-9.87-11.84-3.96-3.93-7.46-6.92-8.09-6.92-1.28,0-2.35,2.46-1.23,2.83ZM199.94,174.04c.65.86,1.51,2.33,1.92,3.28h0c.41.94.65,1.72.54,1.72-.25,0-6.51-8.78-7.15-10.01-.52-1,2.91,2.66,4.69,5.02Z"/>
    <path d="M231.43,372.06c0,1.54-.27,3.86-.58,5.15-.31,1.3-.4,3.61-.2,5.15.22,1.72.65,2.8,1.12,2.8,1.09,0,1.32-1.18,1.78-8.98.4-6.8.38-6.92-.85-6.92-1.11,0-1.26.34-1.27,2.8Z"/>
    <path d="M233.21,392.52c0,.49.4.88.88.88s.88-.4.88-.88-.4-.88-.88-.88-.88.4-.88.88Z"/>
    <path d="M259.72,245.29c-.48,0-.96.46-1.07,1.03-.14.72.18,1.03,1.07,1.03s1.21-.31,1.07-1.03c-.11-.57-.59-1.03-1.07-1.03Z"/>
    <path d="M267.21,236.75c-1.26,0-7.08,6.94-6.68,7.97.53,1.37,1.06,1.02,4.2-2.7,3.12-3.71,3.86-5.27,2.49-5.27Z"/>
    <path d="M287.68,199.25c.6-1.03,1.71-2.2,2.47-2.6.75-.4,1.37-.98,1.37-1.27,0-1.92,9.45-8.1,12.39-8.1.7,0,1.97-.37,2.83-.82,2.11-1.11,11.44-2.71,18.64-3.2,5.51-.38,8.27-.23,15.17.8,3.42.51,3.51.09,1.11-4.83-2.16-4.42-3.47-12.97-2.51-16.41.75-2.7.86-5.59.22-5.58-.24,0-1.9.56-3.68,1.24-2.8,1.07-4.08,1.2-9.42.94-3.4-.17-8.7-.88-11.78-1.59-3.39-.78-6.52-1.16-7.95-.96-4.85.66-8.19,1.57-9.24,2.53-1.02.92-1.16.9-2.36-.38-1.01-1.08-1.32-2.3-1.54-5.95-.23-3.92-.07-4.99,1.1-7.42,3.42-7.13,7.18-11.51,12.77-14.9,2.78-1.69,4.08-3.54,2.48-3.54-2.23,0-14.28,8.12-20.53,13.83-4.69,4.29-16.3,20.44-18.63,25.92-.55,1.3-1.34,3.15-1.75,4.12-.41.97-2.48,5.37-4.58,9.78-3.62,7.57-7.21,16.78-8.59,22.02-.34,1.3-1.14,4.34-1.79,6.77s-1.6,6.4-2.12,8.83-1.2,5.55-1.51,6.93-.55,3.37-.55,4.42-.54,3.76-1.2,6.03c-1.78,6.11-3.71,21.59-2.77,22.2h0c1.73,1.13,2.99.15,4.56-3.53.86-2.04,2.51-4.96,3.66-6.48,1.15-1.52,3.13-4.49,4.41-6.6,2.67-4.39,10.02-12.37,15.22-16.5,3.08-2.45,3.64-3.21,4.21-5.68,1.44-6.32,5.3-14.61,8.12-17.48.37-.38,1.17-1.52,1.77-2.55ZM276.38,218.33c-.76,2.55-1.46,3.5-4.03,5.48-4.7,3.63-12.57,12.17-15.17,16.47-1.27,2.11-3.31,5.15-4.52,6.77-1.21,1.62-2.82,4.47-3.57,6.33h0c-1.44,3.55-2.33,4.33-2.33,2.02,0-3.13,1.82-14.54,2.93-18.36.66-2.27,1.2-4.98,1.2-6.03s.25-3.04.55-4.42.98-4.5,1.51-6.93c.52-2.43,1.48-6.4,2.12-8.83s1.45-5.48,1.79-6.77c1.38-5.24,4.97-14.45,8.59-22.02,2.11-4.41,4.17-8.81,4.58-9.78.41-.97,1.2-2.83,1.75-4.12,1.29-3.02,7.73-12.79,12.43-18.85,3.82-4.92,6.22-7.34,11.13-11.22l2.94-2.32-1.42,2.36c-4.63,7.69-4.85,8.4-4.63,14.72.17,4.79.42,6.14,1.35,7.21,1.31,1.52,3.92,1.75,4.99.46.4-.48,1.69-1.03,2.87-1.23,1.18-.2,3.02-.62,4.07-.95,1.5-.46,3.27-.29,7.95.76,6.39,1.43,19.59,1.94,22.99.88l1.66-.51-.4,3.52c-.55,4.83.65,13.16,2.41,16.82.79,1.64,1.34,3.07,1.23,3.19-.11.11-.97-.09-1.91-.46-3.24-1.28-16.86-.97-24.96.55-4.05.76-8.07,1.76-8.92,2.21-.86.45-2.14.82-2.83.82-2.93,0-12.39,6.18-12.39,8.1,0,.29-.62.87-1.37,1.27-.75.4-1.87,1.58-2.47,2.6-.6,1.03-1.4,2.17-1.77,2.55-2.72,2.76-5.88,9.45-8.35,17.71Z"/>
    <path d="M421.78,90.67h0c1.97.81,4.86.48,5.04-.57.29-1.67-.88-2.54-3.47-2.6-2.23-.05-2.58.12-2.75,1.27-.13.94.21,1.49,1.18,1.89ZM423.19,88.57c.51.2,1.17.36,1.47.36s.54.27.54.59h0c0,.32-.2.56-.44.52-1.59-.25-2.5-.69-2.5-1.22,0-.33.42-.45.93-.25Z"/>
    <path d="M369.68,146.05c-5.1,0-4.65-.62-5.99,8.25-.73,4.86-2.86,10.6-3.92,10.6-.29,0-.52.4-.52.88s-.44.88-.99.88c-.85,0-.81-.19.25-1.33,1.8-1.93,3.55-6.81,3.98-11.12.21-2.06.65-4.48.99-5.37.86-2.27-.26-3.5-2.98-3.27-1.87.16-2.24.5-3.69,3.42-2.06,4.13-4.32,11.46-5.22,16.93-.39,2.35-.94,4.27-1.24,4.27-1.93,0,1.54-13.66,5.42-21.33,1.64-3.23,1.47-4.59-.55-4.59s-3.61,1.61-7.71,7.77c-7.33,11.01-7.93,16.92-3.01,29.63,1.25,3.24,2.42,6.35,2.6,6.92.17.57.61,1.03.98,1.03.6,0,2.95-1.49,5.26-3.34,5.62-4.5,8.38-7.04,9.37-8.65.66-1.06,1.85-2.64,2.65-3.5,4.58-4.95,6.31-9.44,7.4-19.25.38-3.4.83-6.78,1-7.51.31-1.28.19-1.33-4.1-1.33ZM371.29,155.4c-1.42,9.78-2.61,12.72-7.1,17.56-.8.86-1.99,2.43-2.65,3.5-1.02,1.64-3.07,3.54-9.48,8.75h0c-.55.44-1.67,1.25-2.5,1.8-1.34.88-1.51.88-1.51.07,0-.5-.96-3.25-2.14-6.1-4.87-11.8-4.35-17.04,2.76-27.71,4.64-6.97,8.45-10.56,5.94-5.59-3.31,6.54-5.97,15.9-5.97,21.01,0,2.34.18,2.71,1.44,3.03.79.2,1.68.21,1.98.03.3-.18.72-2.33.94-4.77.22-2.44,1.04-6.38,1.81-8.76,3.96-12.13,7.84-15.76,6.71-6.28-.61,5.11-2.49,10.66-4.1,12.12-1.21,1.1-1.5,3.47-.5,4.09.99.61,3.5-.25,3.5-1.21,0-.48.24-.87.52-.87,1.12,0,3.16-5.8,4.23-12.03.62-3.59,1.13-6.59,1.13-6.67,0-.08,1.33-.15,2.95-.15,3.44,0,3.3-.56,2.04,8.17Z"/>
    <path d="M402.82,140.31l-2.35.73v4.28c0,4.35-1.26,10.1-3.61,16.43-.7,1.89-1.51,4.07-1.79,4.84-.29.77-.66,1.27-.82,1.11-.16-.16.36-2.26,1.16-4.65,2.66-7.94,3.89-13.41,3.89-17.29,0-3.34-.14-3.84-1.09-3.84-2.24,0-4.73,1.27-4.91,2.5-.27,1.85-1.65,2.02-1.65.2,0-.84-.23-1.52-.5-1.52-1.08,0-4.53,1.41-4.94,2.01-.24.35-.44,2.69-.44,5.2,0,3.84-.16,4.56-.98,4.56s-.92-.6-.58-5.08l.39-5.08-2.48.4c-3.01.48-3.73,1.04-5.36,4.13-1.06,2.01-1.26,3.43-1.28,8.87-.02,6.83-.17,6.24,4.22,17.37.83,2.11,2.73,5.75,4.23,8.09,1.49,2.34,3.11,4.26,3.6,4.27.72,0,3.07-3.2,4.06-5.54.26-.61,2.36-3.05,6.88-7.97,4.48-4.88,5.44-6.52,7.65-13.09,2.22-6.6,2.47-9.77,1.36-17.24-.72-4.86-.79-4.91-4.65-3.71ZM404.92,160.09c-2.21,6.55-3.17,8.19-7.65,13.07-4.72,5.14-6.82,7.58-6.82,7.93,0,.18-.6,1.24-1.33,2.36h0c-.73,1.13-1.49,2.05-1.68,2.05-.72.01-5.11-7.45-6.58-11.18q-4.22-10.7-4.2-16.2c.03-6.85,1.8-10.76,5.25-11.6,1.12-.27,1.17-.04.97,4.54-.18,4.16-.06,4.88.82,5.22.56.22,1.52.24,2.12.05.94-.3,1.1-.98,1.1-4.87,0-4.97.24-5.64,2.2-6.25,1.09-.34,1.33-.19,1.33.84s.3,1.23,1.91,1.07c1.44-.14,1.96-.5,2.1-1.46.11-.8.83-1.51,1.91-1.88l1.73-.6v2.63c0,2.95-1.54,9.15-4.21,16.96-1.87,5.47-1.75,6.53.68,6.17,1.06-.16,1.66-1.13,3.05-4.89,2.79-7.6,4.01-12.95,4.01-17.53v-4.28l2-.62,2-.62.41,4.16c.23,2.29.52,5.24.65,6.56.17,1.67-.38,4.22-1.78,8.4Z"/>
    <path d="M255.62,251.03c-2.95,4.62-4.74,7.84-4.74,8.5,0,.42.36.77.8.77,1.2,0,6.27-8.12,6.27-10.04,0-1.05-1.48-.57-2.33.76Z"/>
    <path d="M433.95,83.38c.24-1.26-1.94-3.25-3.59-3.28-1.35-.02-1.37,2.17-.03,3.65,1.23,1.36,3.33,1.15,3.62-.37Z"/>
    <path d="M229.93,295.64c-.69,0-.84,1.63-.84,9.13,0,6.39-.2,9.13-.66,9.13s-.53,1.07-.21,3.68c.25,2.02.39,11.02.32,19.99-.08,8.97.03,16.59.24,16.93h0c.82,1.33,1.96.59,2-1.3.02-1.05.29-4.03.6-6.61.31-2.59.45-4.88.31-5.1-.14-.22.03-.49.36-.6.42-.14.41-5.82-.02-18.16-.86-24.45-1.07-27.09-2.1-27.09ZM229.87,300.35c0-2.11.11-2.97.24-1.91.13,1.05.13,2.78,0,3.83-.13,1.05-.24.19-.24-1.91ZM231.03,324.63c.2,8.54.13,15-.17,15.19h0c-.29.18-.62,2.17-.73,4.43-.11,2.26-.16-4.46-.1-14.92.06-10.46.23-19.15.38-19.29s.43,6.42.62,14.59Z"/>
    <path d="M433.76,91.9c.68,1.1,3.13.61,3.55-.72.41-1.3-.91-2.84-2.44-2.84-.8,0-1.64,2.7-1.11,3.56Z"/>
    <path d="M436.81,102.86c-.15.6-.31-.19-.35-1.75-.08-3.42-.89-5.11-2.44-5.11-1.06,0-1.16.42-1.16,5.07,0,5.02.02,5.07,1.39,4.81,1.12-.21,1.34-.06,1.11.81h0c-.43,1.64,1.42,1.35,3.12-.48.79-.86,1.44-2.05,1.44-2.65s.39-1.09.88-1.09c1.21,0,2.66-3.73,2.66-6.84,0-2.07-.2-2.58-1.03-2.57-1.78.02-2.7.95-2.32,2.38.19.73-.06,2.11-.56,3.07-.5.96-.78,2.21-.63,2.78.2.76,0,.96-.78.76-.67-.18-1.15.11-1.33.81ZM434.63,104.53c-.37.23-.59-1.02-.58-3.35,0-2.62.18-3.45.58-2.83.31.49.58,1.99.58,3.35,0,1.36-.26,2.63-.58,2.83Z"/>
    <path d="M249.71,263.74c-2.75-1.35-5.54-2.65-6.19-2.89-.65-.24-3-1.25-5.22-2.26-2.22-1-4.62-1.82-5.33-1.82s-1.54-.24-1.85-.53c-1.21-1.15-8.81-3-12.35-3h-3.71l-.39,2.33c-.32,1.92-.02,3.18,1.77,7.21,1.19,2.69,2.6,5.29,3.14,5.77.54.49,1.67,1.95,2.51,3.25s3.51,4.48,5.91,7.07c2.4,2.58,5.69,6.29,7.31,8.23,3.34,4.01,17.05,18.33,24.11,25.18,3.74,3.63,6.11,5.31,11.48,8.12,5.32,2.79,7.25,4.14,8.98,6.32,1.22,1.53,2.99,3.66,3.95,4.74s3.53,4.92,5.71,8.54c5.55,9.19,10.24,15.13,16.09,20.36,4.49,4.01,12.79,10.07,13.81,10.07.21,0,2.3.89,4.63,1.98,2.33,1.09,5.57,2.28,7.19,2.64s4.53,1.17,6.48,1.79h0c1.94.62,4.2,1.16,5.01,1.19l1.47.05.04-13.4.04-13.4,2.46-9.81c2.8-11.16,3.02-14.78,1.26-20.81-.66-2.27-1.43-5.98-1.72-8.24-.29-2.27-.95-6.51-1.48-9.42-.53-2.92-.83-5.81-.67-6.42.16-.62.06-2.34-.23-3.83-.29-1.49-.83-4.5-1.21-6.7-1.19-6.84-3.4-9.89-15.12-20.89-1.78-1.67-3.55-2.63-6.18-3.37-2.03-.57-4.62-1.5-5.75-2.08-3.09-1.56-14.8-2.19-17.96-.96-1.3.5-4.06,1.34-6.14,1.87-2.08.52-5.66,1.96-7.95,3.2-2.29,1.24-5.29,2.83-6.67,3.55s-2.5,1.61-2.5,1.98c0,.37,1.61,2,3.57,3.62,7.25,5.98,6.85,5.59,5.39,5.21-1.7-.44-1.74,1.04-.14,4.78,1.05,2.45,3.54,13.31,3.54,15.44,0,.47-.23.71-.51.54-.28-.17-.69-2.11-.91-4.3-.52-5.13-4.06-15.77-6.11-18.41-.88-1.13-2.64-3.03-3.92-4.24-2.32-2.19-2.35-2.2-7.07-2.1-4.25.09-5.14-.1-8.63-1.79-2.14-1.04-4.12-1.89-4.42-1.89s-2.78-1.11-5.54-2.46ZM267.22,271.17c4.69.06,4.93.14,7.07,2.12,1.22,1.13,2.92,2.96,3.78,4.07,2.09,2.69,5.2,11.89,6.05,17.87.66,4.61.76,4.84,2.28,5.02,1.46.17,1.59.02,1.59-1.85,0-2.81-2.16-13.33-3.29-16.04l-.93-2.23,1.67,1.08c2.01,1.31,6.93,5.86,13.8,12.78,7.49,7.53,13.17,16.77,14.72,23.93,1.27,5.87,1.88,8.1,2.36,8.61.29.31.53,1.08.53,1.73,0,1.26,1,4.73,1.84,6.39.28.56.52,1.58.52,2.26s.47,1.95,1.05,2.81c.58.86,1.55,3.15,2.17,5.1,1.89,6,3.92,9.13,5.91,9.13,1.3,0,1.08-1.63-.69-5.29-1.77-3.64-2.17-4.64-3.14-7.8-.37-1.21-.92-2.35-1.22-2.54-.3-.19-.55-1-.55-1.81s-.31-2.06-.69-2.76c-.38-.71-1.03-2.74-1.43-4.53-2.43-10.59-6.48-22.98-7.9-24.15-.2-.16-1.32-1.88-2.49-3.83-1.17-1.94-4.13-5.65-6.58-8.25-2.45-2.59-4.45-4.78-4.46-4.87,0-.09.77.24,1.73.74.96.49,2.03.9,2.38.9s1.23.55,1.94,1.22c.72.67,2.23,1.62,3.36,2.11,3.82,1.66,5.56,2.77,6.97,4.46,1.39,1.65,4.15,3.4,5.36,3.4.34,0,.62-.6.62-1.32,0-1.7-5.07-6.41-8.75-8.12-1.51-.7-3.27-1.76-3.92-2.35-1.08-.98-10.22-5.29-11.22-5.29-.24,0-1.79-.88-3.44-1.96s-4.2-2.53-5.66-3.22c-1.46-.69-4.8-3.07-7.41-5.28-4.38-3.7-4.66-4.07-3.53-4.61.68-.32,3.51-1.82,6.29-3.32,2.79-1.5,6.76-3.15,8.83-3.67,2.07-.52,4.8-1.35,6.06-1.84,3.32-1.28,12.53-.55,16.54,1.32,1.62.76,3.36,1.38,3.85,1.38,2.53.02,10.04,5.65,15.52,11.64,4.96,5.42,6.12,8.05,7.18,16.27,2.36,18.27,3.36,24.63,4.7,29.92.8,3.14,1.45,6.67,1.45,7.86s-1.11,6.57-2.46,11.96h0c-2.44,9.7-2.47,9.97-2.8,23.1l-.33,13.29-3.53-1.08c-1.94-.59-4.86-1.37-6.48-1.73s-4.85-1.55-7.19-2.64c-2.33-1.09-4.42-1.98-4.63-1.98-1.02,0-9.33-6.05-13.81-10.07-5.85-5.23-10.54-11.17-16.09-20.36-2.18-3.62-4.75-7.46-5.71-8.54-.96-1.08-2.73-3.21-3.95-4.74-1.74-2.18-3.66-3.54-8.98-6.32-5.38-2.82-7.74-4.49-11.48-8.12-7.06-6.85-20.77-21.17-24.11-25.18-1.62-1.94-4.91-5.65-7.31-8.23-2.4-2.58-5.06-5.76-5.91-7.07s-1.98-2.77-2.51-3.25c-1.62-1.48-5.07-9.88-4.75-11.57.28-1.49.36-1.51,3.89-1.13,3.74.4,9.08,1.87,10.05,2.76.31.28,1.14.52,1.85.52s3.11.82,5.33,1.82,4.84,2.15,5.81,2.56,3.49,1.57,5.59,2.59c10.82,5.25,13.61,6.18,18.69,6.25ZM297.19,288.79h0c3.22,3.22.62,1.39-3.22-2.26-2.2-2.1-4.79-4.49-5.74-5.32l-1.73-1.51,1.68.62c.92.34,3.04,1.51,4.71,2.6,1.67,1.09,3.43,2.12,3.92,2.3.7.25.67.33-.15.37-1.49.07-1.27,1.42.52,3.21ZM299.41,290.93c.64,0,8.94,9.99,10.24,12.31,1.86,3.34,1.2,3.03-.94-.45-.97-1.57-3.53-4.89-5.69-7.36-2.16-2.48-3.79-4.5-3.61-4.5ZM311.51,306.24c.34,0,.62.27.62.59s-.12.59-.26.59-.42-.27-.62-.59c-.2-.32-.08-.59.26-.59ZM317.76,325.55c-.44.44-1.18-2.03-2.68-9-.28-1.3-1.06-3.65-1.74-5.24-.68-1.58-1.14-2.98-1.01-3.11.44-.44,2.85,6.06,4.28,11.51h0c.8,3.04,1.31,5.66,1.15,5.83ZM318.38,326.43c.2.2.7,1.97,1.1,3.93s.64,3.57.5,3.57-.33-.33-.43-.74c-.11-.4-.5-1.68-.86-2.84-.72-2.26-.9-4.51-.31-3.92ZM320.82,337.71c-.24-.25-.43-1.13-.42-1.97.02-1.33.09-1.39.63-.47h0c.67,1.15.5,3.15-.2,2.44Z"/>
    <path d="M228.51,386.78c0-.57-.41-1.03-.89-1.03-.61,0-.88.61-.88,1.96,0,1.08.18,2.14.39,2.36h0c.22.22.78.39,1.25.39.6,0,.75-.4.5-1.33-.2-.73-.36-1.79-.36-2.36Z"/>
    <path d="M103.65,147.37c0-.61-.92-1.53-2.21-2.2-1.21-.64-2.42-1.49-2.68-1.9-.66-1.04-2.18-.93-2.18.16,0,.5.42,1.06.94,1.26.52.2,1.77,1.12,2.78,2.04,2.1,1.92,3.35,2.16,3.35.64Z"/>
    <path d="M106.4,156.26c.68.68,1.37.43,1.37-.49,0-.49-.4-.88-.88-.88-.92,0-1.17.7-.49,1.37Z"/>
    <circle cx="86.86" cy="148.11" r=".88"/>
    <path d="M93.75,206.49c3.34-1.33,6.77-4.22,12.37-10.43,4.42-4.9,5.73-5.97,9.6-7.8,2.46-1.17,5.51-2.41,6.77-2.74,1.44-.39,2.43-1.06,2.67-1.81.21-.66,1.28-2.02,2.39-3.03,1.11-1.01,2.02-2.12,2.03-2.47.05-1.63,3.46-4.29,7.19-5.63.93-.33,1.63-1.03,1.64-1.62.01-.57.67-2.11,1.47-3.4.8-1.3,1.45-2.89,1.45-3.54,0-1.88,2.81-5.53,4.58-5.97.88-.22,2.66-.88,3.96-1.47,1.3-.59,3.33-1.07,4.53-1.08,3.17-.02,4.97-.89,6.49-3.14.74-1.1,2.83-3.96,4.64-6.35s3.96-5.83,4.77-7.62c.93-2.04,2.38-3.98,3.89-5.17,2.54-2.01,5.07-5.95,5.72-8.93.22-.99.08-4.22-.31-7.19-.91-6.98.01-13.27,2.34-16.02.85-1,1.88-3.15,2.29-4.77.54-2.15,1.51-3.74,3.58-5.89,5.07-5.27,7.56-8.92,8.24-12.09,1.31-6.09.54-14.87-1.73-19.71-.91-1.93-1.72-6.29-1.74-9.28l-.02-2.8h-2.23c-1.38,0-3.6.73-5.83,1.91-8.59,4.56-9.33,5.17-13.22,11.04-3.51,5.27-3.75,5.86-4.08,9.89-.3,3.58-.62,4.56-1.95,5.95-1.4,1.46-1.64,2.28-1.93,6.61-.19,2.72-.68,5.61-1.09,6.42-1.31,2.54-4,4.77-7.05,5.83-3.19,1.11-4.37.98-9.66-1.04-5.01-1.92-6.33-3.81-6.9-9.91-.31-3.39-.18-4.44.8-6.39.97-1.92,1.13-3.11.89-6.75-.28-4.28-.23-4.49,1.61-6.77,1.86-2.31,1.88-2.44,1.51-6.77-.61-7.11-2.01-11.05-4.67-13.19-2.99-2.4-3.74-3.2-5.27-5.61-1.42-2.23-4.62-4.07-10.42-5.99-2.11-.7-4.08-1.5-4.39-1.78-.31-.28-.96-.52-1.44-.52s-1.92-.72-3.19-1.6c-2.11-1.46-2.79-1.6-7.98-1.62-4.77-.02-6.07.19-8.13,1.29-2.06,1.1-2.61,1.8-3.46,4.42-1.32,4.06-1.66,4.42-5,5.41-1.56.46-3.34,1.12-3.97,1.45-1.57.84-2.02,3.67-1.03,6.47,1.61,4.57,1.73,7.44.4,9.89-.74,1.36-1.32,3.77-1.48,6.08-.14,2.11-.45,4.67-.67,5.7-.33,1.53.1,2.85,2.41,7.36,1.55,3.02,3.21,6.29,3.69,7.26.48.97,1.84,2.96,3.03,4.42s2.51,3.58,2.94,4.71c.43,1.13,1.01,2.31,1.28,2.62.27.31.49.97.49,1.48s.69,1.94,1.54,3.18,1.59,3.03,1.65,3.96c.19,2.69-1.51,2.74-5.41.16-1.85-1.23-4.93-2.87-6.85-3.64-3.01-1.22-4.05-1.35-7.69-1.01-3.49.33-4.73.19-7.29-.82-3.9-1.54-6.58-1.54-9.57-.02-3.21,1.64-5.71.91-8.96-2.63-1.91-2.07-4.65-3.79-11.9-7.46-8.78-4.45-9.73-4.8-13.9-5.08-4.11-.28-4.79-.15-8.26,1.5-4.9,2.34-6.44,3.75-8.78,8.05-1.06,1.94-3.27,4.93-4.92,6.65l-3,3.11,1.42,2.48c.78,1.36,2.03,3.71,2.79,5.2s2.07,3.35,2.94,4.12c4.93,4.37,6.01,5.69,6.68,8.19,1.37,5.1,3.48,11.5,4.71,14.27.95,2.13,2,3.28,4.43,4.84,2.06,1.32,3.61,2.86,4.37,4.36,3.72,7.3,16.82,11.89,25.51,8.96,2.56-.86,3.79-1.03,4.32-.59,1.05.87,11.14,2.87,12.59,2.49.66-.17,1.2-.62,1.2-.98,0-.44.95-.6,2.74-.45,2.56.2,2.71.14,2.4-1.06-.27-1.03-.18-1.15.47-.61,1.02.85,3.22.19,3.22-.97,0-.48-.86-1.25-1.91-1.7-1.05-.46-1.58-.84-1.18-.85,1.03-.03.93-1.79-.1-1.79-.46,0-.94.32-1.07.71-.18.53-.75.55-2.26.09l-2.02-.62,2.21-.45c2.6-.53,2.88-1.74.59-2.58-1.54-.56-1.55-.59-.23-.64,1.05-.04,1.3-.29,1.01-1.04-.36-.94-.32-.94.72,0,.61.55,1.66,1,2.35,1s1.4.26,1.6.57c.19.32,1.35.84,2.56,1.17s2.78,1.13,3.48,1.78c1.5,1.4,4.27,1.61,4.27.33,0-.52-2.74-2.18-6.92-4.18-3.81-1.82-7.78-3.73-8.83-4.24-1.16-.56-1.91-1.36-1.91-2.04,0-1.26-.05-1.28,4.71,1.91,1.78,1.19,3.9,2.37,4.71,2.62,2.87.88,6.04,2.77,8.59,5.12,2.07,1.91,2.88,2.31,4.06,2.01,2.18-.55,1.81-1.67-1.17-3.55-3.26-2.06-4.45-3.32-2.69-2.86.98.26,1.21.04,1.21-1.11,0-.78-.33-1.77-.74-2.2-.4-.43.72.31,2.5,1.65,4.05,3.03,4.81,3.09,4.51.33l-.23-2.1,1.69,1.61c1.24,1.19,2.38,1.66,4.34,1.77,1.46.09,2.65-.09,2.65-.4,0-.88,2.1-.65,4,.44,1.61.92,1.81.93,2.7.04.57-.57,1.55-.85,2.43-.69.81.15,1.47-.01,1.47-.35s-1.18-2.39-2.63-4.54c-1.45-2.16-2.52-4.04-2.38-4.18.59-.59,1.96.52,2.88,2.34.55,1.08,1.98,3.56,3.2,5.5,3.23,5.17,6,5.11,2.94-.07-.91-1.54-1.08-2.27-.59-2.44,1.32-.44.8-4.32-.88-6.52-1.03-1.35-1.34-2.16-.88-2.31.39-.13.72-.68.75-1.22s.76,1.14,1.62,3.73c1.5,4.51,1.65,4.72,3.48,4.9,2.23.21,2.31-.15,1.04-4.36-1.12-3.68-1.11-4.36.06-4.36.74,0,.9-.49.73-2.28-.16-1.66-.02-2.21.53-2,.43.17.75-.17.75-.81,0-.86.12-.92.53-.27.29.45.89.68,1.34.51.62-.24,1.09.91,1.91,4.63.71,3.25,1.36,4.94,1.89,4.94.92,0,1.03-2.95.27-6.9-.31-1.6-.26-2.55.12-2.68.41-.14.36-1.43-.13-3.93-.58-2.96-.58-3.82,0-4.18.54-.33.63-1.88.36-5.95-.5-7.36.5-5.52,1.33,2.46,1.28,12.21,1.95,17.06,2.39,17.06.24,0,.62,1.34.83,2.97.24,1.82.74,3.1,1.28,3.31.49.19,1,.22,1.14.08.27-.27-.53-6.75-1.15-9.31-.2-.81-.2-1.14,0-.74.19.4.73.74,1.18.74.62,0,.83-.84.83-3.24s.22-3.24.81-3.24.93,1.35,1.23,5.04c.35,4.24.57,5.01,1.39,4.85.81-.15,1.09-1.51,1.62-7.84.35-4.21.69-6.38.74-4.83.06,1.9.38,2.93.98,3.15.58.22.88,1.14.88,2.63s.26,2.29.81,2.29c1.16,0,2.32-1.6,1.92-2.64-.21-.54,0-.89.51-.89.47,0,1.37-.99,2-2.21,1.22-2.34,4.4-5.62,4.93-5.09.83.83-5.3,10.83-9.22,15.02-2.31,2.47-4.87,5.25-5.69,6.18-.82.93-3.67,3.65-6.33,6.04s-4.84,4.68-4.84,5.09-.66,1.17-1.47,1.71c-1.29.84-1.47.85-1.47.07,0-.49-.41-.9-.9-.9-1.16,0-1.85,1.75-.92,2.32.99.61-2.2,2.65-3.92,2.51-.73-.06-1.33.17-1.33.51s.25.46.55.28.7-.09.9.22c.2.32-.28.45-1.13.29-.94-.17-2.35.28-3.84,1.22-1.84,1.16-2.36,1.29-2.36.6,0-1.29-.98-1.1-3.23.62-1.84,1.41-1.95,1.43-1.66.29.23-.88.04-1.21-.72-1.21-1.03,0-15.11,9.53-18.01,12.19-1.29,1.18-1.64,1.27-2.22.58-.54-.65-.47-1.01.32-1.64.56-.46.82-.51.59-.12-.23.38-.15.86.18,1.07.33.2.84-.26,1.14-1.04.85-2.25,4.6-5.46,6.14-5.26.78.1,1.8-.33,2.44-1.04,1.08-1.19,1.07-1.24-.26-2.48-1.04-.97-1.58-1.12-2.31-.64-.52.34-.92,1.02-.88,1.52.05.56-.25.78-.78.57-.52-.2-2.06.82-3.9,2.6-1.67,1.61-4.24,3.81-5.7,4.9l-2.65,1.97,2.42-2.61c1.33-1.43,3.65-3.93,5.15-5.55,3.08-3.32,3.52-4.74,1.31-4.19-.88.22-1.52.08-1.67-.37-.19-.57-.57-.58-1.82-.01-.93.42-1.57.48-1.57.14,0-1.41-5.6.42-6.65,2.17-.64,1.06-1.59.99-1.59-.12,0-1.5-1.42-1.58-5.2-.31-1.98.67-4.99,1.21-6.7,1.22-4.62.01-5.76.45-5.76,2.22,0,.83-.37,1.92-.82,2.43-2.18,2.46-5.07,9.07-5.07,11.59,0,2.25-.35,3.01-2.5,5.4-1.38,1.53-2.87,3.02-3.32,3.3-.45.28-2.77,2.41-5.15,4.73l-4.34,4.22v4.81c0,2.64-.25,4.96-.55,5.14-.3.19-1.27,3.39-2.15,7.12-1.33,5.61-1.48,7.04-.91,8.31h0c.67,1.47.83,1.51,4.36,1.16,4.65-.46,17.96-1.53,22.23-1.78,3.17-.19,5.63-1.21,11.47-4.75,1.3-.79,3.81-1.73,5.59-2.11,1.78-.37,3.77-.91,4.42-1.18.65-.28,2.16-.89,3.35-1.37ZM112.31,137.93c-1.36-.17-1.58-.42-1.26-1.42.28-.88.18-1.09-.36-.75-.46.28-.6.22-.36-.17.49-.79,2.03-.39,3.84.97,1.58,1.2.88,1.71-1.87,1.36ZM121.23,117.17c-.12.37-1.35-2.42-2.73-6.21s-2.41-6.99-2.29-7.1c.23-.23,1.12,1.85,3.64,8.43.88,2.32,1.51,4.52,1.38,4.89ZM119.76,107.81c-.19-.83-.71-2.09-1.15-2.8-.59-.95,0-.77.37-.77.45,0,.53-.64.26-1.91-.81-3.76.22-1.21,2.26,5.59h0c1.14,3.81,1.84,6.92,1.56,6.92-.56,0-2.75-4.69-3.3-7.03ZM123.48,119.16c-.72-.72-.41-1.96.49-1.96.49,0,.88.52.88,1.18,0,1.17-.63,1.53-1.37.79ZM127.5,126.62c-.16,0-.29-.54-.29-1.19,0-.73-.57-1.41-1.47-1.75-1.63-.62-1.96-2.04-.59-2.57.49-.19.88-.06.88.27s.4,1.01.88,1.5c.49.49.88,1.53.88,2.31s-.13,1.43-.29,1.43ZM129.7,120.73c-.9,0-1.33-.64-1.88-2.8-.39-1.54-1.25-4.26-1.91-6.04s-1.83-4.93-2.6-7.01c-.77-2.07-1.7-4.13-2.06-4.56-.51-.62-.43-.8.37-.8.87,0,.98-.38.68-2.5-.29-2.07-.24-2.25.26-1.03.33.81.97,3.06,1.41,5.01,1.15,5,3.41,10.9,4.19,10.9.36,0,.98,1.62,1.37,3.59.39,1.98.85,3.96,1.02,4.42.21.53-.09.82-.85.82ZM84.8,207.86c-1.78.37-4.3,1.32-5.59,2.11-6.14,3.72-7.54,4.19-14.72,4.93-3.89.4-7.47.57-7.97.38-.5-.19-3.01.05-5.59.55h0c-7.04,1.35-7.34,1.28-7.34-1.61,0-2.16,2.26-11.15,2.99-11.9.3-.31.55-2.68.55-5.28v-4.72l4.34-4.22c2.39-2.32,4.71-4.45,5.15-4.73.45-.28,1.94-1.77,3.32-3.3,2.15-2.39,2.5-3.15,2.5-5.4,0-2.53,2.89-9.13,5.07-11.59.45-.51.82-1.64.82-2.5s.07-1.6.15-1.62c.08-.03,2.4-.26,5.15-.52s5.98-.73,7.16-1.05c1.93-.52,2.19-.45,2.47.6.23.88.67,1.11,1.74.91,1.12-.21,1.37-.06,1.17.72-.14.55.16,1.41.67,1.92.51.51.93,1.19.93,1.52s.46.69,1.03.82c.81.18.36.86-2.06,3.14-3.01,2.83-3.85,4.39-2.36,4.36.4,0,1.4-.53,2.21-1.16.81-.63,1.8-1.16,2.21-1.16.4,0,.74-.26.74-.56,0-.55,2.4-1.54,2.94-1.21.16.1.21.7.1,1.35-.16.96.04,1.11,1.18.82.9-.23-1.03,2.01-5.54,6.45-3.81,3.74-6.92,7.05-6.92,7.34s.4.53.88.53.88-.26.88-.58.73-.76,1.62-.98c1.96-.49,5.15-2.44,9.86-6.04,5.14-3.93,5.66-4.34,7.2-5.81.77-.73,1.67-1.33,2.01-1.33.75,0,3.41-1.81,7.07-4.82,2.81-2.31,4.35-2.8,4.78-1.51.44,1.31,2.44-.05,12.51-8.5,1.96-1.65,2.4-1.88,1.33-.71-1.91,2.08-2.12,3.76-.48,3.76.63,0,1.29-.24,1.47-.54.18-.29,1.72-1.67,3.42-3.05s2.76-2.15,2.35-1.7c-.98,1.09-.94,2.94.07,2.94,1.27,0,9.8-8.27,9.8-9.5,0-1.49-1.8-1.41-3.46.14-.73.68-1.46,1.11-1.61.95s1.58-1.94,3.87-3.97c3.16-2.8,4.15-4.06,4.15-5.24,0-2.01,1.07-3.57,5.91-8.58,4.23-4.39,9.61-13.58,9.28-15.86-.29-1.99-2.6-1.87-4.76.25-1.76,1.73-1.9,1.77-2.08.63-.34-2.19-1.64-1.29-2.45,1.69-.71,2.61-.91,2.85-1.93,2.31-.99-.53-1.11-1.14-.93-4.83.19-3.93.11-4.23-1.05-4.4-1.52-.22-1.96,1.09-2.02,6.07-.02,1.94-.28,4.59-.57,5.89-.39,1.74-.48.5-.35-4.71.2-7.97.11-8.54-1.4-8.54-.92,0-1.14.68-1.49,4.56-.23,2.51-.56,4.81-.74,5.11-.54.92-1.21-1.55-1.27-4.67-.06-3.41-.7-4.74-2.03-4.23-.61.23-.97,1.14-1.02,2.59-.05,1.44-.25.78-.55-1.85-.72-6.22-.95-6.82-2.62-6.82-.98,0-1.48.34-1.51,1.03-.03.62-.17.73-.34.29-.16-.4-.8-.74-1.43-.74-1.51,0-1.46,1,.55,10.76,1,4.88,1.41,8.03,1.03,7.9-.35-.12-.96-2.44-1.36-5.17-1.21-8.22-2.04-10.82-3.51-11.03-1.35-.19-2.55-2.65-2.55-5.24,0-2.72-1.29-6.65-2.19-6.65-.71,0-.81.67-.52,3.68l.35,3.68-.78-2.65c-.43-1.46-1.24-4.37-1.8-6.48-1.75-6.55-2.84-10.27-3.29-11.19-.55-1.14-3.55-1.55-3.55-.48,0,1.34,1.9,8.43,3.71,13.89.8,2.41,1.02,3.89.64,4.27-.38.38-1.48-2.17-3.18-7.37-2.38-7.27-2.72-7.95-4.01-7.95s-1.38.21-1.14,1.91c.15,1.05,1.2,4.9,2.33,8.54,1.13,3.64,1.8,6.63,1.49,6.63s-.43.83-.23,1.91c.27,1.5.03,1.23-1.1-1.25-.8-1.74-1.45-3.53-1.45-3.96,0-1.02-2.84-1.75-3.65-.94-.7.7-.6,1.03,3.06,9.84,3.26,7.82,4.65,11.48,4.36,11.48-.13,0-.78-1.17-1.45-2.59-1.46-3.11-3.13-4.74-4.36-4.27-1.23.47-1.14,2.28.19,3.99,1.67,2.13,4.4,7.59,3.99,7.99-.2.2-.49-.08-.66-.61-.17-.53-.43-1.37-.58-1.85-.15-.49-.95-.88-1.77-.88-1.26,0-1.49.27-1.49,1.72,0,.95.4,2.12.88,2.61.49.49.88,1.13.88,1.44s.4.89.88,1.29c.49.4.88,1.01.88,1.35s-.61.04-1.36-.66c-.75-.7-1.81-1.28-2.36-1.28-1.43,0-1.27,2.51.25,3.88.68.62,1.75,2.12,2.37,3.33,1.08,2.11,1.08,2.21.06,2.21-.59,0-2.24-1.19-3.67-2.65-4.09-4.16-6.72-3.03-2.94,1.27,1.61,1.84,2.47,4.7,1.26,4.23-.28-.11-2.68-2.18-5.34-4.61-5.01-4.58-7.83-6.48-9.61-6.48-1.63,0-1.25,2.19.58,3.37.89.57,2.25,1.57,3.02,2.22,3.5,2.94,9.5,8.54,9.15,8.54-.28,0-5.7-4.07-7.31-5.49-2.22-1.96-9.92-7.42-11.78-8.35-1.13-.57-3.12-1.87-4.42-2.9-4.89-3.86-8.27-5.65-10.71-5.65-1.15,0-1.41.26-1.26,1.28.13.9.89,1.51,2.55,2.06,1.3.43,4.27,2.24,6.61,4.02,2.34,1.78,4.39,3.24,4.57,3.24.98,0,15.61,10.84,15.61,11.57,0,.16-.82-.29-1.82-1-2.66-1.89-18.9-11.15-19.56-11.15-.31,0-3.11-1.68-6.23-3.73-3.12-2.05-7.66-4.47-10.09-5.38-2.43-.91-4.67-1.88-4.98-2.16-.31-.28-1.19-.51-1.96-.51-1.01,0-1.35.29-1.21,1.03.18.96,1.97,1.98,11.09,6.31,2.78,1.32,2.95,1.48,1.18,1.16-1.13-.21-3.22-.9-4.64-1.54-3.72-1.68-6.55-2.05-6.55-.88,0,.15.06.34.15.53.04.06.07.12.1.19.24.4.62.81,1.05,1.12l.93.65c.63.28,1.32.48,1.99.63,1.42.32,6.49,1.59,9.01,3.36.53.28.89.55.89.77,0,0,2.99,2.47,1.14,1.77-1.85-.69-7.8-2.77-9.33-3.71-1.52-.94-5.99-2.53-5.95-1.46,0,.82,2.29,2.25,9.14,5.71,5.47,2.77,9.51,5.19,10.06,6.03l.92,1.41-1.71-1.26c-1.05-.78-3-1.4-5.05-1.61-3.15-.32-3.35-.27-3.35.93,0,.7.4,1.43.88,1.62.49.19.88.99.88,1.78,0,1.09.5,1.65,2.04,2.29,1.12.47,2.66.85,3.42.85,1.33,0,4.31,1.71,3.05,1.75-.34.01-.91-.27-1.27-.63-.82-.82-3.12-.12-3.12.95,0,.45.46,1.08,1.03,1.41.98.57.98.6,0,.62-.69.01-1.03.48-1.03,1.41,0,1.19-.23,1.35-1.56,1.09-1.42-.27-1.53-.16-1.26,1.25.29,1.51.24,1.54-2.12,1.19-1.33-.2-3.01-.72-3.72-1.17-1.73-1.08-2.89-1.03-6.77.3-7.86,2.7-19.9-1.84-23.48-8.85-.76-1.5-2.31-3.04-4.37-4.36-2.43-1.56-3.48-2.7-4.43-4.84-1.23-2.77-3.34-9.17-4.71-14.27-.67-2.51-1.72-3.78-6.76-8.26-.91-.81-2.03-2.36-2.49-3.45-.46-1.09-1.52-3.02-2.36-4.3l-1.53-2.32,2.66-2.77c1.46-1.52,3.52-4.36,4.58-6.3,2.33-4.28,3.88-5.71,8.65-7.99,5.52-2.63,8.18-2.17,19.64,3.45,7.24,3.55,9.76,5.11,12.21,7.56,3.96,3.97,6.95,4.63,11.42,2.54l2.9-1.36,4.76,1.61c4.33,1.46,5.04,1.55,7.79.94,2.65-.59,3.42-.52,6.27.55,1.78.67,4.83,2.28,6.77,3.57,3.36,2.24,5.54,2.82,7.61,2.03,1.63-.63,1.19-4.85-.84-7.89-.97-1.46-1.76-3.06-1.76-3.56,0-.5-.23-1.16-.5-1.47-.27-.31-.85-1.49-1.28-2.62-.43-1.13-1.76-3.25-2.94-4.71-1.18-1.46-2.55-3.45-3.03-4.42-.48-.97-2.13-4.21-3.66-7.2-2.25-4.4-2.67-5.65-2.17-6.59.34-.63.62-2.75.62-4.71,0-2.52.34-4.12,1.18-5.49,1.41-2.31,1.5-5.46.3-10.08-1.51-5.8-1.35-6.09,4.39-7.8,3.35-.99,3.68-1.36,5-5.41,1.4-4.3,4.04-5.73,10.46-5.67,3.92.04,4.85.26,6.8,1.61,1.24.86,2.66,1.57,3.14,1.57s1.13.23,1.44.52c.31.28,2.28,1.09,4.39,1.78,5.8,1.92,8.99,3.76,10.42,5.99,1.54,2.41,2.29,3.21,5.27,5.61,2.48,1.99,3.88,5.67,4.61,12.04.34,3.03.24,3.44-1.42,5.53-1.68,2.11-1.79,2.58-1.79,7.21,0,3.43-.3,5.53-.96,6.82-.77,1.48-.89,2.91-.63,7,.47,7.23,1.67,9.16,6.95,11.17,6.04,2.3,7.56,2.47,11.34,1.3,3.49-1.09,6.27-3.27,7.72-6.08.42-.81.95-3.73,1.19-6.48.36-4.23.66-5.25,1.93-6.61,1.23-1.31,1.57-2.39,1.87-5.89.34-4.03.58-4.62,4.08-9.89,3.9-5.86,4.64-6.48,13.22-11.04,5.05-2.68,5.7-2.58,5.72.88.02,2.99.83,7.34,1.74,9.28,1.27,2.72,2.37,7.8,2.37,10.97,0,7.52-1.66,10.97-8.88,18.47-2.07,2.15-3.04,3.74-3.58,5.89-.41,1.62-1.44,3.76-2.29,4.77-2.19,2.59-3.23,9.07-2.55,15.94.28,2.86.46,6.01.4,6.99-.17,2.61-2.86,7.04-5.61,9.22-1.5,1.19-2.96,3.13-3.89,5.17-.82,1.8-2.96,5.23-4.77,7.62s-3.89,5.26-4.64,6.35c-1.52,2.25-3.32,3.12-6.49,3.14-1.19,0-3.23.49-4.53,1.08-1.3.59-3.08,1.25-3.96,1.47-1.78.44-4.58,4.09-4.58,5.97,0,.65-.66,2.25-1.45,3.54-.8,1.3-1.46,2.83-1.47,3.4-.01.6-.71,1.29-1.64,1.62-3.74,1.33-7.15,4-7.19,5.63-.01.35-.92,1.47-2.03,2.47-1.11,1.01-2.18,2.37-2.39,3.03-.24.75-1.23,1.42-2.67,1.81-1.26.34-4.31,1.57-6.77,2.74-3.87,1.84-5.18,2.9-9.6,7.8-5.6,6.21-9.03,9.1-12.37,10.43-1.2.48-2.7,1.09-3.35,1.37-.65.28-2.64.81-4.42,1.18ZM115.89,108.68c-.12.12-1.22-2.22-2.44-5.2-1.22-2.98-2.36-5.76-2.54-6.16-.18-.4-.03-.74.33-.74s.65.3.65.66.95,3.04,2.11,5.94,2.01,5.38,1.89,5.5Z"/>
    <path d="M113.66,146.92c0-.94-1.57-1.85-2.16-1.26-.19.19-.18.75,0,1.25h0c.45,1.18,2.15,1.18,2.15,0Z"/>
    <path d="M110.13,147.12c0-.97-2.39-3.42-3.34-3.42-1.17,0-.94,1.22.5,2.76,1.37,1.46,2.84,1.81,2.84.66Z"/>
    <path d="M380.59,95.88c1.59-.15,1.94-.45,2.1-1.8.14-1.18-.07-1.62-.77-1.62-1.66,0-3.24,1.17-3.24,2.41,0,.99.32,1.16,1.91,1.01Z"/>
    <path d="M118.43,142.52c.29,0,.53-.26.53-.59s-.32-.52-.72-.44c-1.26.26-2.35,1.62-2,2.52.53,1.38,2.33,1.1,1.97-.31-.17-.65-.07-1.18.23-1.18Z"/>
    <path d="M386.48,101.84c1.87-.07,6.58-3.06,6.83-4.34.18-.93-.08-1.02-2.06-.67-3.55.62-6.09,2.17-6.09,3.72,0,1.01.33,1.33,1.33,1.29Z"/>
    <path d="M373.09,88.93c-2.35,0-4.74,3.01-3.44,4.32.95.95,3.49-.09,4.25-1.75.97-2.12.83-2.57-.81-2.57ZM371.58,91.87c-.34,0-.46-.27-.26-.59.2-.32.48-.59.62-.59s.26.27.26.59-.28.59-.62.59Z"/>
    <path d="M407.68,89.13c2.63,1.06,6.33-.1,6.33-1.99,0-.96-.41-1.16-2.39-1.16-1.32,0-2.91.27-3.53.61-1.29.69-1.51,2.09-.4,2.53ZM409.6,87.75c.2-.32.94-.58,1.65-.58,1.05,0,1.13.12.41.58-1.16.75-2.52.75-2.06,0Z"/>
    <path d="M398.78,81.76c.94-1.48.57-2.84-.77-2.84-3.5,0-6.29,2.22-4.75,3.78.67.68,4.96-.05,5.52-.94ZM395.76,81.05c1.25-.73,2.48-.83,1.72-.15h0c-.13.12-.91.4-1.72.61l-1.47.39,1.47-.86Z"/>
    <path d="M364.86,106.03c.21.35,1.09.55,1.95.45,1.13-.13,1.62-.57,1.76-1.57.25-1.78-.63-2.66-2.17-2.17-1.3.41-2.17,2.28-1.54,3.3h0ZM366.94,104.24c.34,0,.46.26.26.59-.2.32-.48.59-.62.59s-.26-.27-.26-.59.28-.59.62-.59Z"/>
    <path d="M110.94,214.9c-1.66-1.38-2.49.51-2.6,5.94-.18,8.85.45,11.35,4.07,16.19,1.21,1.62,3.24,4.35,4.51,6.06,2.14,2.89,3.7,3.68,4.21,2.14.12-.35-1.26-2.74-3.06-5.3-5.63-8.02-6.36-10.06-6.3-17.72.04-5.15-.14-6.74-.83-7.31ZM115.88,238.33c1.61,2.25,3.23,4.67,3.61,5.38,1.01,1.88.33,1.57-1.37-.63-6.83-8.85-7.92-10.76-8.41-14.87-.61-5.05-.36-12.66.4-12.66.35,0,.55,2.63.52,6.63-.07,7.7.52,9.53,5.25,16.16Z"/>
    <path d="M227.03,471.73c.69,0,.88-.82.88-3.83s-.19-3.83-.88-3.83-.88.82-.88,3.83.19,3.83.88,3.83ZM227.16,466.59h0c.13.9.13,2.22,0,2.94-.14.72-.25,0-.25-1.63,0-1.62.12-2.21.25-1.32Z"/>
    <path d="M121.62,253.84c.66,1.06,3.59.61,4.82-.75,2.93-3.22,3.05-5.56.26-4.86-2.58.64-5.89,4.3-5.08,5.61ZM127.52,249.24c.13.13-.29,1.08-.92,2.11-.82,1.36-1.58,1.89-2.7,1.89-1.47,0-1.51-.07-.68-1.33.84-1.28,3.84-3.14,4.3-2.68Z"/>
    <path d="M228.1,290.22c.31-6.14.22-7.35-.59-8.25-2.11-2.33-2.45-1.4-2.16,5.87.15,3.81.4,7.52.55,8.25h0c.15.73.62,1.33,1.05,1.33.59,0,.87-1.79,1.14-7.19ZM227.13,284.31c.16.4.16,1.07,0,1.47-.16.4-.3.07-.3-.74s.13-1.14.3-.74Z"/>
    <path d="M378.97,129.18c1.76.22,4.91-.11,5.74-.6.24-.14.44-.75.44-1.35,0-.93-.65-1.15-4.29-1.5-5.76-.54-7.15-.3-7.38,1.3-.19,1.33.22,1.5,5.48,2.15ZM376.91,126.73c1.13-.02,3.12.18,4.42.44l2.36.49h-2.36c-1.3-.02-3.28-.21-4.42-.45l-2.06-.43,2.06-.04Z"/>
    <path d="M226.04,310.98c.07-4.14-.21-8.24-.72-10.6-.47-2.12-1.13-7.69-1.48-12.39-.78-10.6-1.22-12.17-4.19-15.06-2.68-2.6-7.39-11.77-7.99-15.54-.21-1.31-.68-2.38-1.04-2.38-1.02,0-9.49,8.9-10.67,11.2-.58,1.13-1.53,2.66-2.11,3.4s-1.63,3.06-2.32,5.15c-.69,2.09-1.59,3.99-2,4.24-.75.46-3.89,9.68-3.88,11.43,0,.54,2.14,3.16,4.75,5.84,2.61,2.68,5.27,5.82,5.91,6.98.64,1.16,1.92,3.17,2.84,4.47s2.17,3.19,2.77,4.22c3.22,5.47,4.69,7.87,6.61,10.8,1.17,1.78,2.92,4.74,3.9,6.57.98,1.83,3.19,5.61,4.91,8.39h0c1.72,2.78,3.51,5.06,3.96,5.06,1.42,0,1.63-2.72,1.12-14.07-.27-6.03-.44-14-.37-17.71ZM225.47,335.69l-.2,5.01-1.47-2.36c-.81-1.3-2.27-3.55-3.25-5.02s-2.28-3.72-2.89-5.01c-.61-1.29-2.07-3.8-3.24-5.59-1.18-1.78-3.06-4.79-4.18-6.69-1.12-1.9-2.53-4.28-3.14-5.3-.6-1.02-1.85-2.91-2.77-4.21-.92-1.3-2.2-3.31-2.84-4.47-.64-1.16-3.29-4.28-5.88-6.94l-4.71-4.83,1.54-4.84c.85-2.66,1.87-5.04,2.27-5.28.4-.24,1.3-2.15,1.99-4.24.69-2.09,1.74-4.4,2.32-5.15s1.53-2.28,2.11-3.42c.58-1.13,2.85-3.87,5.03-6.08l3.98-4.02.43,1.96c.81,3.73,5.48,12.51,7.91,14.87,2.97,2.89,3.41,4.46,4.19,15.06.35,4.7,1,10.26,1.44,12.37.48,2.25.67,5.28.48,7.36-.18,1.94-.01,7.64.38,12.66.39,5.02.62,11.38.51,14.13Z"/>
    <ellipse cx="115.43" cy="145.76" rx="1.18" ry=".88"/>
    <circle cx="128.09" cy="141.05" r=".88"/>
    <path d="M101.29,207.7c0,1.13,2.39.95,3.3-.25.92-1.22,1.07-3.09.24-3.09-.91,0-3.54,2.48-3.54,3.35Z"/>
    <path d="M363.94,119.58c.74-.47.67-.88-.44-2.87-.72-1.28-1.31-2.77-1.31-3.31,0-.73-.42-.94-1.62-.8-1.4.16-1.64.48-1.8,2.39-.14,1.71.14,2.53,1.3,3.68,1.58,1.58,2.48,1.79,3.87.92ZM360.7,116.96c-.58-.89-.83-1.95-.59-2.55.32-.81.58-.52,1.22,1.3.98,2.81.72,3.32-.63,1.26Z"/>
    <path d="M192.31,274.81c.89-.34,1.54-1.69,2.26-4.64.49-2.03-.7-2.17-3.11-.39-.92.68-3.5,1.72-5.74,2.33-3.54.95-4.46,1-6.98.35-2.72-.69-2.97-.92-4.03-3.65-1.47-3.79-2.33-14.79-1.48-18.81.97-4.56,2.82-9.57,4.89-13.19,2.56-4.47,3.69-8.13,2.79-9.02-.52-.52-1.03-.35-2.11.66-2.26,2.12-5.02,1.88-8.38-.73-1.55-1.21-3.49-2.33-4.32-2.49-3.75-.74-4.45-1.18-5.11-3.21-.82-2.52-2.19-2.83-5.7-1.28-3.14,1.39-10.25,5.98-14.27,9.22-4.81,3.87-12.65,13.1-12.65,14.88,0,1.2,1.12,3.11,1.83,3.11.34,0,2.57-1.19,4.97-2.65,6.29-3.82,15.22-7.02,23.53-8.43,3.89-.66,7.86-1.07,8.83-.9l1.77.3-1.65-.91c-1.5-.83-2.26-.81-8.83.31-8.47,1.44-17.34,4.62-23.73,8.5-3.54,2.15-4.6,2.55-5.27,1.99-.66-.55-.7-.96-.17-1.96,1.29-2.42,6.85-9.01,9.99-11.83,4.08-3.67,12.28-9.03,16.41-10.72l3.24-1.33.45,1.7c.55,2.07,3.02,4.13,4.97,4.13,1.73,0,3.27.78,6.23,3.16,2.69,2.15,5.71,2.32,7.72.43.72-.68,1.49-1.23,1.71-1.23.59,0-1.1,3.86-4.67,10.66-.78,1.49-2.01,4.93-2.74,7.66-1.15,4.32-1.27,5.85-.96,12.02.35,7.01,1.38,11.24,3.24,13.3,1.18,1.31,6.27,2.39,8.31,1.77.91-.28,2.77-.81,4.13-1.18,1.36-.37,3.26-1.33,4.23-2.14l1.75-1.47-.6,2.17c-.33,1.2-1.11,2.59-1.73,3.11-.62.51-1.36,2.22-1.65,3.78s-.82,3.14-1.18,3.5-.66,1.1-.66,1.63-.66,1.95-1.47,3.15c-.87,1.29-1.47,3-1.47,4.22,0,1.42-.32,2.17-1.03,2.43-.57.21-2.14,1.13-3.49,2.04-1.35.92-3.25,1.67-4.22,1.67s-3.44.53-5.49,1.17c-2.05.64-4.24,1.17-4.86,1.18-2.72.02-7.6,4.12-13.88,11.68-1.28,1.54-2.54,2.46-3.36,2.46-1.72,0-4.38,1.16-5.49,2.39-.88.98-6.15,2.91-7.93,2.91-.52,0-3.37.8-6.34,1.78-5.05,1.67-5.54,1.73-7.52.94-1.6-.64-2.83-.71-5.03-.3-2.14.4-4.07.31-7.25-.35-2.38-.49-5.19-.89-6.24-.89s-2.68-.24-3.62-.52-2.81-.82-4.16-1.19c-1.95-.53-2.75-1.18-3.92-3.16-1.21-2.07-5.98-6.32-7.08-6.32-.17,0-1.96-.98-3.98-2.19-4.78-2.85-7.83-6.16-9.37-10.18-.68-1.78-2.04-4.24-3.02-5.47-2.07-2.58-2.7-6.09-2.54-13.96.07-3.35.42-5.59,1.06-6.77,1.12-2.05,1.2-4.41.34-9.69-.83-5.1.25-8.02,4.06-11.02,3.88-3.05,5.3-4.76,6.89-8.23.76-1.67,1.65-3.2,1.96-3.39.32-.2.75-1.17.97-2.16.22-.99.77-1.94,1.22-2.12.45-.17,2.08-2.44,3.63-5.03,3.33-5.61,9.41-11.65,11.72-11.65.83,0,2.48-.51,3.66-1.13,1.18-.62,2.88-1.29,3.79-1.49,1.05-.23,2.31-1.31,3.5-2.99,1.07-1.51,2.88-3.13,4.25-3.8,3.51-1.7,13.5-3.59,18.58-3.52,2.43.03,6.58-.12,9.21-.34,3.62-.3,5.6-.17,8.04.55,1.78.52,4.46.94,5.95.94h2.71v3.27c0,1.8.36,3.98.81,4.86,1.5,2.95,1.71,4.24.7,4.24-2.95,0-15.79,8.05-21.28,13.34-1.97,1.9-4.97,5.04-6.67,6.98-3.43,3.92-3.39,4.02-1.46-3.53,2.07-8.14,3.65-12.07,6.92-17.28,3.09-4.93,3.36-5.6,2.56-6.41-.49-.49-1.2-.71-1.57-.48-1.11.69-6.97,9.9-7.4,11.65-.22.89-.64,1.77-.93,1.95-.29.18-.52,1.07-.52,1.98s-.4,1.99-.88,2.39c-.49.4-.89,1.3-.9,1.99,0,.69-.54,3.22-1.18,5.63-.64,2.41-1.16,5.49-1.16,6.85,0,2.13-.28,2.69-2.06,4.05-1.13.86-2.06,1.95-2.06,2.42,0,.66-.76.5-3.39-.69-7.49-3.4-11.71-4.35-19.99-4.5-5.58-.1-7.98.07-8.51.6-1.12,1.11.24,2.16,2.89,2.25,6.73.22,15.23,1.02,15.71,1.49.31.29,1.11.54,1.78.54,1.08,0,3.75.88,8.71,2.86,3.09,1.24,1.76,1.85-4,1.85-3.68,0-6.18.29-7.23.83-.88.46-3.14,1.11-5.01,1.46-1.87.35-4.12,1.01-4.99,1.48-.87.47-3.57,1.78-6,2.92-5.13,2.41-8.03,4.59-7.42,5.58.67,1.08,3.01.8,4.18-.49.59-.65,1.46-1.18,1.93-1.18s2.9-1.02,5.38-2.26c2.48-1.24,5.77-2.43,7.3-2.64,1.53-.21,3.56-.78,4.51-1.28,2.01-1.04,14.56-1.28,12.98-.25-.49.32-2.93,1.78-5.43,3.25-7.67,4.51-17.79,16.3-23.81,27.74-1.5,2.85-3.05,5.58-3.45,6.06-1.27,1.55-1.59,5.64-.52,6.53.8.66,1.07.61,1.76-.34.45-.62.82-1.7.82-2.4s.61-2.18,1.36-3.28c.75-1.1,1.77-2.79,2.28-3.76,4.76-9.1,8.91-14.93,14.76-20.73,2.35-2.34,5.64-5.15,7.31-6.25l3.03-2-.88,2.12c-.48,1.17-1.15,2.45-1.47,2.85-.33.4-1.38,3.58-2.34,7.07-.96,3.49-2.11,7.66-2.56,9.28-1.66,6-2.16,29.15-.63,29.15.14,0,.72.18,1.29.39.88.34.97.13.67-1.39-.2-.98-.11-5.07.2-9.08.31-4.01.69-9.15.86-11.42.32-4.35,4.87-20.65,6.9-24.74,1.33-2.69,4.46-6.18,5.52-6.18.47,0,.86,1.74,1.14,5.15.69,8.42,2.56,19.63,3.61,21.64.34.65.77,2.02.97,3.04.43,2.27,4.4,12.57,5.24,13.6.79.96,2.23.95,2.23-.03,0-.42-1.3-4.74-2.89-9.61-3.88-11.87-4.91-17.72-5.62-31.74l-.24-4.71,1.43,2.36c.79,1.3,1.43,2.72,1.43,3.16,0,.77,3.01,6.04,5.59,9.79,3.94,5.73,21.39,19.42,23.28,18.25,1.41-.87.26-2.26-4.28-5.21-10.09-6.55-18.6-16.14-21.42-24.14-.46-1.29-1.12-2.7-1.48-3.13-.81-.98,2.02-.02,7.74,2.62,2.11.97,5.15,2.36,6.77,3.09,3.4,1.53,10.06,4.76,11.78,5.73,5.81,3.25,12.33,6.01,12.89,5.46,1.5-1.5-.62-2.83-17.47-10.88-5.11-2.44-9.53-4.44-9.82-4.44s-2.93-1.19-5.86-2.65c-2.93-1.46-5.65-2.65-6.05-2.65-.46,0-.52-.2-.17-.55.5-.49,14.23-1.42,18.82-1.28,3.21.1,12.92,1.29,14.72,1.8,4.78,1.37,5.01,1.35,5-.41,0-1.58-.16-1.66-5.45-2.75-6.32-1.3-28.93-2.01-32.49-1.03-1.7.47-2.1.42-2.1-.26,0-.46.27-.84.6-.84s1.99-.92,3.68-2.04c6.62-4.37,17.31-7.9,29.5-9.74,1.9-.29,3.62-.7,3.83-.92.56-.59-6.59.07-11.99,1.1-6.35,1.22-19.55,6.52-22.83,9.18-.57.46-1.63,1.13-2.36,1.5-.83.42-1.32,1.19-1.32,2.11,0,1.29.2,1.42,1.77,1.16.97-.16,7.46-.29,14.43-.29,10.19,0,13.78.22,18.4,1.15,3.16.63,5.74,1.33,5.74,1.54s-2.45-.15-5.45-.82c-4.69-1.05-7.25-1.2-18.45-1.12-12.61.09-16.49.57-16.02,1.98.12.36,2.4,1.64,5.06,2.85,2.66,1.2,5.03,2.4,5.28,2.67q.47.52-5.08-1.78c-2.6-1.08-3.94-1.37-4.36-.94-.43.43-.41.86.06,1.43.37.45,1.05,1.87,1.5,3.16.46,1.29,2.13,4.51,3.73,7.16,3.33,5.53,11.89,13.81,18.57,17.96,4.68,2.91,5.36,4.16.89,1.62-4.23-2.4-11.67-8.43-15.67-12.71-3.2-3.43-8.33-11.23-8.33-12.69,0-1.33-3.62-7.04-4.46-7.04-.46,0-.83.2-.82.44.25,7.18,1.35,19.61,2.08,23.51.53,2.82,2.26,9.1,3.84,13.96s2.8,8.91,2.7,9.02c-.29.29-4.53-10.93-4.92-13.01-.19-1-.61-2.33-.93-2.95-1.34-2.61-2.39-9.08-3.85-23.59-.34-3.36-.61-4.15-1.51-4.33-1.46-.28-5.4,3.57-7.13,6.97-2.15,4.21-6.74,20.46-7.08,25.03-1.09,14.68-1.44,18.71-1.66,18.93-.43.43.09-13.88.76-20.91.35-3.68.98-7.39,1.41-8.25s1.38-3.93,2.13-6.84c.75-2.9,2.23-6.94,3.29-8.98,1.06-2.03,1.68-3.84,1.38-4.03-1.05-.65-7.92,4.21-12.39,8.76-6.19,6.31-10.39,12.22-15.14,21.3-.51.97-1.53,2.66-2.28,3.76-.75,1.1-1.36,2.61-1.36,3.36s-.27,1.52-.6,1.73c-.84.52-.04-4.46.89-5.6.4-.49,1.95-3.21,3.45-6.06,5.86-11.13,15.2-22.15,22.34-26.37,2.34-1.38,5.12-3.02,6.19-3.65,3.22-1.89,2.11-2.47-5.07-2.65-5.03-.13-6.98.05-8.33.75-.97.5-3.02,1.08-4.55,1.29-1.53.21-4.82,1.4-7.3,2.64-2.48,1.24-4.9,2.26-5.38,2.26s-1.32.5-1.88,1.12c-.97,1.08-3.29,2.06-3.29,1.39s2.17-2.01,6.48-4.05c2.43-1.15,5.13-2.48,6-2.94.87-.47,3.12-1.13,4.99-1.48,1.87-.35,4.13-1,5.01-1.46,1.08-.56,3.63-.83,7.82-.83h6.21v-1.49c0-1.22-.51-1.71-2.8-2.7-4.24-1.83-7.38-2.86-8.72-2.87-.66,0-1.46-.25-1.77-.54-.55-.53-11.67-1.52-15.44-1.38-1.22.05-1.78-.16-1.54-.55.61-.98,13.95-.02,18.55,1.33,2.14.63,5.65,1.94,7.8,2.92,4.65,2.11,4.77,2.12,4.86.54.04-.68,1.03-2.03,2.21-3,1.85-1.52,2.14-2.11,2.14-4.26,0-1.37.52-4.47,1.16-6.88.64-2.41,1.17-4.94,1.18-5.63,0-.69.41-1.58.9-1.99.49-.4.88-1.48.88-2.39s.24-1.81.52-1.98c.29-.18.71-1.05.93-1.93.48-1.91,6.13-10.77,6.87-10.77.87,0,.62.51-2.87,6.09-1.86,2.97-3.96,7.25-4.66,9.52-3.46,11.18-4.39,16.19-3.02,16.19.47,0,1.66-1.13,2.65-2.5,3.44-4.79,10.71-11.54,16.46-15.3,5.86-3.83,10.69-6.34,12.19-6.34,1.91,0,2.27-1.59,1-4.46-.72-1.63-1.22-4-1.22-5.81,0-1.68-.32-3.36-.71-3.75-.39-.39-1.87-.71-3.3-.71s-4.05-.42-5.83-.94c-2.44-.71-4.43-.84-8.04-.55-2.64.22-6.79.37-9.21.34-5.19-.07-15.09,1.83-18.77,3.61-1.54.75-3.32,2.29-4.4,3.83-1.07,1.52-2.43,2.71-3.31,2.9-.82.17-2.46.83-3.63,1.45s-2.83,1.13-3.68,1.13c-2.17,0-9.52,7.12-12.35,11.96-1.22,2.09-2.86,4.4-3.63,5.12-.77.72-1.57,2.08-1.77,3s-.63,1.85-.95,2.04c-.32.2-1.18,1.73-1.92,3.4s-2.12,3.74-3.06,4.59c-.94.85-2.82,2.52-4.18,3.71-3.51,3.07-4.54,6.09-3.75,10.95.86,5.29.77,7.64-.34,9.69-.64,1.18-1,3.42-1.06,6.77-.16,7.86.48,11.38,2.54,13.96.98,1.23,2.34,3.67,3.02,5.42,2.14,5.48,6.58,9.54,15.45,14.13,2.32,1.2,5.13,4.12,5.54,5.75.2.78,1.05,1.77,1.91,2.21,2.05,1.05,8.57,2.7,10.69,2.7.92,0,3.62.41,5.99.91,3.4.72,4.88.77,7.02.26,2.18-.52,3.1-.48,4.71.22h0c2.63,1.15,2,1.21,8.09-.8,2.95-.97,5.78-1.77,6.3-1.77,1.69,0,7.02-1.92,8.23-2.96,1.75-1.51,3.58-2.34,5.16-2.34.95,0,2.25-.96,4.01-2.97,7.41-8.43,10.68-11.16,13.36-11.17.73,0,1.79-.25,2.36-.55,1.37-.73,6.17-1.81,8.1-1.81.85,0,2.7-.8,4.12-1.77s2.76-1.77,3-1.77c1.04,0,2.59-2.07,2.59-3.47,0-.84.71-2.98,1.58-4.77,2.44-5.02,3.05-6.61,3.41-8.93.19-1.18.73-2.3,1.21-2.49ZM157.46,267.55c.14-.14,1.67.45,3.4,1.3,6.12,3.01,10.23,5.18,10.78,5.67,1.17,1.05-.65.41-4.09-1.45-1.94-1.05-4.46-2.28-5.59-2.74-2.53-1.01-4.84-2.45-4.5-2.79ZM149.44,263.47c5.92,2.75,7.21,3.4,7.21,3.64,0,.53-.96.17-4.86-1.83-3.87-1.99-5.6-3.31-2.36-1.8ZM144.87,261.5c.49,0,1.28.26,1.77.57.79.51.79.57,0,.57-.49,0-1.28-.26-1.77-.57-.79-.51-.79-.57,0-.57ZM142.78,260.67c.5.19.91.45.91.58,0,.48-1.12.21-1.47-.35-.21-.33.03-.43.55-.23Z"/>
    <path d="M370.87,124.41c-2.27-1.1-5.25-1.91-7-1.91-2.61,0-2.27,2.12.53,3.34,1.21.53,3,1.31,3.98,1.74,2.08.92,2.67.96,3.74.28,1.09-.69.38-2.67-1.25-3.46ZM370.31,126.62c-.54,0-1.14-.26-1.34-.59-.2-.32-.83-.59-1.39-.59s-1.54-.39-2.17-.86c-1.02-.77-.9-.79,1.21-.18,1.3.37,2.88,1.02,3.52,1.45h0c.97.65,1,.77.18.77Z"/>
    <path d="M351.12,194.46c-.12.59.76,1.07,2.87,1.56,2.5.58,6.98,2.59,14.55,6.53.55.29,3.66,1.81,6.9,3.37s6.82,3.47,7.95,4.24c1.13.76,2.59,1.63,3.24,1.93.65.3,2.37,1.22,3.83,2.04,8.73,4.94,18.24,9.25,22.71,10.29,1.6.37,3.7.89,4.68,1.15,1.62.43,1.64.47.29.5-.81.02-2.53-.19-3.83-.47-2.91-.63-15.58-5.76-16.78-6.8-.49-.42-3.8-2.21-7.36-3.98-3.56-1.77-7.86-4.16-9.55-5.31-1.69-1.15-3.85-2.26-4.8-2.47s-2.19-.89-2.76-1.52c-.57-.63-1.46-1.15-1.98-1.15-.52,0-1.6-.36-2.41-.79-8.7-4.67-12.05-6.2-15.31-7.03l-3.83-.97-1.81,2.14c-2.63,3.1-3.32,2.3-3.09-3.56l.19-4.79-2.94-.8c-5.03-1.37-16.03-1.56-22.55-.4-9.59,1.71-12.59,2.57-17.55,5.03-4.11,2.04-5.32,3.03-8.84,7.21-5.92,7.03-10.25,13.29-10.25,14.83,0,1.03,1.91.01,3.69-1.95,1.13-1.25,3.32-3.17,4.86-4.27,6.91-4.91,11.19-7.59,12.11-7.59.55,0,2.38-.96,4.08-2.12,4.12-2.84,5.82-3.48,12.06-4.56,2.92-.51,6.23-1.2,7.36-1.53,1.13-.34,4.71-.56,7.95-.5l5.89.11-6.18.37c-3.4.2-8.04.82-10.31,1.38-2.27.55-5.82,1.4-7.9,1.88-3.65.85-10.16,4.4-8.08,4.4.55,0,1.73-.53,2.6-1.18.88-.65,3.98-1.72,6.9-2.38,2.92-.66,6.36-1.49,7.66-1.85,1.3-.35,5.88-.76,10.19-.9,6.84-.23,7.81-.38,7.65-1.22-.1-.53-.85-1.14-1.65-1.37-2.67-.74-12.51-.55-15.86.32-1.8.46-5.49,1.25-8.19,1.76-3.31.61-5.97,1.54-8.14,2.84-4.51,2.69-5.52,3.22-7.73,4.03-1.06.39-2.83,1.4-3.93,2.25-1.1.85-3.53,2.6-5.41,3.9-1.88,1.3-4.58,3.55-5.99,5.01l-2.57,2.65,1.6-2.62c2.54-4.15,4.77-7.07,8.88-11.66,2.99-3.33,4.77-4.73,8.06-6.33,9.01-4.37,27.51-6.91,36.32-4.99,6.05,1.32,5.47.7,5,5.34-.35,3.5-.26,4.3.62,5.27,1.47,1.62,2.27,1.44,3.87-.91.84-1.22,1.76-1.95,2.28-1.79.49.14,2.21.58,3.83.98,2.5.61,5.89,2.21,14.43,6.78.81.43,1.9.79,2.41.79s1.41.52,1.98,1.15,1.81,1.31,2.76,1.52c.95.21,3.11,1.32,4.8,2.47,1.69,1.15,5.99,3.54,9.55,5.31,3.56,1.77,6.88,3.56,7.36,3.98,1.67,1.44,14.43,6.32,18.13,6.94,4.12.69,5.69.09,4.27-1.62-.88-1.06-.64-1.12,1.43-.33.84.32,5.21,1.25,9.71,2.06,4.5.82,8.93,1.86,9.85,2.33,4.17,2.13,6.76,3.27,7.42,3.28.39,0,1.35.5,2.12,1.09l1.41,1.08-1.7.43c-1.96.49-17.72.44-24.67-.08-7.86-.59-12.21-.41-15.61.65-5.6,1.74-10.92,1.86-17.46.39-3.19-.72-6.8-1.68-8.02-2.14-3.03-1.14-3.38-1.09-6.46.96-2.95,1.96-12.18,5.26-19.59,7.01-6.18,1.46-19.29,2.04-28.61,1.27-8.2-.68-11.76-1.94-19.39-6.83-2.11-1.35-5.35-3.43-7.21-4.62-1.86-1.19-3.53-2.16-3.72-2.16-.45,0-4.66-3.28-7.82-6.09-1.4-1.25-4.05-2.96-5.89-3.81-2.44-1.13-3.03-1.61-2.18-1.78.64-.13,3.14-2.06,5.56-4.29,2.42-2.23,4.74-4.05,5.14-4.05s.96-.35,1.21-.77,1.51-1.55,2.78-2.5c2.29-1.72,2.38-1.73,10.01-1.7,10.72.05,15.92,1.92,23.94,8.62,4.29,3.59,6.64,2.59,2.69-1.14-6.89-6.5-14.54-10.05-22.68-10.53-6.18-.36-5.37.62.98,1.18.58.05,1.19.12,1.78.21,4.53.28,9.41,2.92,10.82,3.56,0,0,0,0,0,0,0,0,0,0,0,0,.11.05.21.11.31.17,2.33,1.23,4.9,3.18,8.31,6.29,3.04,2.77,1.87,2.35-1.81-.64-1.73-1.41-4.97-3.66-7.2-5.01-2.72-1.75-9.24-3.4-9.65-3.5-3.69-.53-7.47-.71-10.61-.48l-4.94.37-5.37,3.93c-2.95,2.16-6.37,5.05-7.6,6.43-1.22,1.38-2.81,2.59-3.53,2.69-.83.12-1.31.6-1.31,1.31,0,.79,1.12,1.7,3.76,3.05,2.07,1.06,4.72,2.81,5.89,3.9,2.52,2.34,6.93,5.77,7.41,5.77.32,0,1.58.78,10.92,6.78,6.89,4.43,11.6,6.22,17.74,6.77h0c8.64.77,24.7.13,30.26-1.2,7.5-1.8,16.65-5.09,19.59-7.03,3.08-2.04,3.43-2.09,6.46-.96,1.22.46,4.83,1.42,8.02,2.14,6.54,1.48,11.86,1.36,17.46-.39,3.51-1.09,4.48-1.11,24.04-.52,7.23.22,14.34.22,15.79,0,2.95-.44,3.89-1.7,2.2-2.96-1.17-.87-1.77-1.17-6.4-3.19-1.62-.7-3.69-1.67-4.61-2.14s-5.35-1.52-9.85-2.34c-12.77-2.31-19-5-25.56-11.01-2.74-2.51-8.43-5.75-10.12-5.77-.37,0-2.29-1.2-4.27-2.66-1.98-1.46-3.83-2.65-4.12-2.65s-.86-.41-1.28-.92c-.42-.51-1.71-1.39-2.87-1.97-1.16-.58-3.43-1.76-5.05-2.61-4.37-2.31-17.81-6.86-20.26-6.86s-6.15,1.78-6.41,3.05ZM377.8,199.44c1.62.86,3.89,2.03,5.05,2.61s2.45,1.47,2.87,1.97.99.92,1.28.92,2.14,1.19,4.12,2.65c1.98,1.46,3.9,2.65,4.27,2.66,1.63.01,6.95,3.04,9.06,5.14,2.08,2.08,5.8,4.58,10.95,7.34l1.87,1-1.77-.02c-3.44-.04-14.44-4.77-25.03-10.78-1.46-.83-3.05-1.68-3.53-1.89-.49-.21-1.68-.96-2.65-1.66-.97-.7-4.68-2.67-8.25-4.38-3.56-1.71-6.93-3.34-7.49-3.64-6.21-3.28-11.9-5.93-13.39-6.23-1-.2-1.97-.6-2.14-.88-.43-.7,2.33-1.69,4.71-1.69s15.86,4.64,20.07,6.86Z"/>
  </g>
</svg>